<svg width="22" height="40" viewBox="0 0 22 40" fill="none" xmlns="http://www.w3.org/2000/svg">
<path d="M1.48256 21.304H5.86721V39.3548C5.86721 39.7112 6.15598 40 6.51237 40H13.9467C14.3031 40 14.5919 39.7112 14.5919 39.3548V21.389H19.6324C19.9601 21.389 20.2359 21.1431 20.2733 20.8175L21.0388 14.1721C21.0599 13.9893 21.0019 13.8062 20.8796 13.669C20.7571 13.5317 20.5819 13.4532 20.398 13.4532H14.5921V9.28748C14.5921 8.03174 15.2682 7.39497 16.6019 7.39497C16.792 7.39497 20.398 7.39497 20.398 7.39497C20.7544 7.39497 21.0432 7.10606 21.0432 6.74981V0.649935C21.0432 0.293548 20.7544 0.00477419 20.398 0.00477419H15.1664C15.1295 0.00296774 15.0476 0 14.9268 0C14.0191 0 10.8639 0.178193 8.37147 2.4711C5.60992 5.012 5.99379 8.05432 6.08553 8.58181V13.453H1.48256C1.12618 13.453 0.837402 13.7418 0.837402 14.0982V20.6587C0.837402 21.0151 1.12618 21.304 1.48256 21.304Z" fill="white"/>
</svg>
