<svg width="41" height="40" viewBox="0 0 41 40" fill="none" xmlns="http://www.w3.org/2000/svg">
<path fill-rule="evenodd" clip-rule="evenodd" d="M29.2481 0H11.3252C5.23866 0 0.286865 4.95203 0.286865 11.0386V28.9614C0.286865 35.0482 5.23866 40 11.3252 40H29.2481C35.3351 40 40.2869 35.048 40.2869 28.9614V11.0386C40.2871 4.95203 35.3351 0 29.2481 0ZM36.7381 28.9614C36.7381 33.0913 33.3782 36.451 29.2483 36.451H11.3252C7.19557 36.4512 3.83586 33.0913 3.83586 28.9614V11.0386C3.83586 6.90894 7.19557 3.54899 11.3252 3.54899H29.2481C33.3779 3.54899 36.7379 6.90894 36.7379 11.0386V28.9614H36.7381ZM20.2868 9.69336C14.6035 9.69336 9.97983 14.317 9.97983 20.0003C9.97983 25.6835 14.6035 30.3069 20.2868 30.3069C25.9702 30.3069 30.5938 25.6835 30.5938 20.0003C30.5938 14.317 25.9702 9.69336 20.2868 9.69336ZM20.2868 26.7576C16.5606 26.7576 13.5288 23.7263 13.5288 20.0001C13.5288 16.2737 16.5604 13.2421 20.2868 13.2421C24.0133 13.2421 27.0448 16.2737 27.0448 20.0001C27.0448 23.7263 24.013 26.7576 20.2868 26.7576ZM29.1878 7.44642C29.6707 6.96139 30.3424 6.68457 31.0262 6.68457C31.7123 6.68457 32.3843 6.96139 32.8669 7.44642C33.352 7.92908 33.6288 8.60103 33.6288 9.28717C33.6288 9.97094 33.352 10.6429 32.8669 11.1279C32.3819 11.6106 31.7123 11.8898 31.0262 11.8898C30.3424 11.8898 29.6705 11.6106 29.1878 11.1279C28.7028 10.6429 28.4236 9.97118 28.4236 9.28717C28.4236 8.60103 28.7025 7.92908 29.1878 7.44642Z" fill="white"/>
</svg>
