<svg width="50" height="40" viewBox="0 0 50 40" fill="none" xmlns="http://www.w3.org/2000/svg">
<path d="M49.2869 4.73263C47.4744 5.53574 45.5297 6.0804 43.4864 6.32356C45.5728 5.0742 47.1698 3.09254 47.9267 0.738495C45.9697 1.89548 43.8095 2.7356 41.5077 3.19103C39.6646 1.22474 37.0428 0 34.1348 0C28.556 0 24.0326 4.52342 24.0326 10.0992C24.0326 10.89 24.1218 11.6624 24.2941 12.401C15.8997 11.9793 8.45609 7.95753 3.47418 1.84624C2.60332 3.33562 2.10791 5.07106 2.10791 6.92357C2.10791 10.4285 3.89267 13.521 6.6006 15.3303C4.94506 15.275 3.38801 14.8196 2.02487 14.0625V14.1887C2.02487 19.0814 5.50822 23.1648 10.127 24.0941C9.28076 24.3218 8.38842 24.448 7.46526 24.448C6.81294 24.448 6.18211 24.3834 5.56358 24.2603C6.84979 28.276 10.5794 31.1962 14.9982 31.2762C11.5425 33.9841 7.18525 35.5935 2.45262 35.5935C1.6372 35.5935 0.834009 35.5442 0.0432129 35.455C4.51434 38.326 9.82244 40 15.5275 40C34.1104 40 44.2681 24.608 44.2681 11.2594L44.2342 9.95158C46.219 8.53598 47.936 6.75742 49.2869 4.73263Z" fill="white"/>
</svg>
