<svg width="57" height="40" viewBox="0 0 57 40" fill="none" xmlns="http://www.w3.org/2000/svg">
<path d="M54.6221 3.43371C52.5704 0.994838 48.7825 0 41.5484 0H15.2885C7.88885 0 4.03674 1.05901 1.99279 3.65557C0 6.18722 0 9.9174 0 15.0801V24.9201C0 34.9218 2.36444 40 15.2885 40H41.5485C47.8219 40 51.2982 39.1221 53.5471 36.9698C55.8534 34.7627 56.8375 31.159 56.8375 24.9201V15.0801C56.8375 9.6356 56.6833 5.88341 54.6221 3.43371ZM36.4898 21.3586L24.5653 27.5907C24.2987 27.7301 24.0072 27.7992 23.7161 27.7992C23.3864 27.7992 23.0575 27.7105 22.7661 27.5341C22.2176 27.2017 21.8826 26.6071 21.8826 25.9657V13.5414C21.8826 12.9012 22.2167 12.3071 22.7641 11.9746C23.3118 11.642 23.9929 11.6192 24.5611 11.9144L36.4856 18.1064C37.0923 18.4214 37.4733 19.0477 37.4742 19.731C37.4749 20.4149 37.0956 21.0421 36.4898 21.3586Z" fill="white"/>
</svg>
