<svg width="172" height="234" viewBox="0 0 172 234" fill="none" xmlns="http://www.w3.org/2000/svg">
<path opacity="0.2" d="M2.13262 86.9136L1.5 87.362V88.1374V106.702V108.202H3H76.6216H78.1216V106.702V86.687V85.187H76.6216H40.9634C49.9956 79.0805 57.8895 71.87 64.6394 63.5562L64.6441 63.5504C72.5001 53.7753 76.5147 43.6878 76.5147 33.313C76.5147 23.9719 73.5163 16.268 67.4485 10.3431C61.4216 4.36213 52.5544 1.5 41.1255 1.5C30.0982 1.5 20.8634 4.74483 13.5387 11.3105C6.13985 17.9426 2.24446 27.7558 1.64772 40.4947L1.57416 42.0649H3.14607H27.5405H28.9902L29.0396 40.6161C29.2309 35.0141 30.1863 31.143 31.711 28.7776C33.2268 26.57 35.5818 25.3855 39.0804 25.3855C42.2488 25.3855 44.3677 26.2843 45.7284 27.8446C47.1233 29.4442 47.9517 31.9989 47.9517 35.7786C47.9517 41.6922 44.3902 48.9411 36.7167 57.5904C29.0829 66.195 17.5735 75.9695 2.13262 86.9136ZM139.437 76.214L139.432 76.2267C138.477 78.4243 137.077 80.0141 135.239 81.072C133.383 82.1403 130.981 82.7214 127.953 82.7214C124.874 82.7214 122.418 82.1392 120.508 81.0649C118.618 80.0014 117.173 78.4057 116.174 76.2089C114.06 71.4602 112.947 64.5984 112.947 55.5038C112.947 46.5026 114.061 39.741 116.172 35.0936C117.171 32.8944 118.617 31.2971 120.508 30.2329C122.418 29.1585 124.874 28.5763 127.953 28.5763C130.981 28.5763 133.383 29.1574 135.239 30.2257C137.077 31.2836 138.477 32.8734 139.432 35.071L139.439 35.0875L139.447 35.1038C141.551 39.6466 142.667 46.4002 142.667 55.5038C142.667 64.6017 141.553 71.4651 139.437 76.214ZM2.13262 210.196L1.5 210.644V211.42V229.985V231.485H3H76.6216H78.1216V229.985V209.969V208.469H76.6216H40.9635C49.9956 202.363 57.8895 195.152 64.6394 186.839L64.6441 186.833C72.5001 177.058 76.5147 166.97 76.5147 156.595C76.5147 147.254 73.5161 139.55 67.4479 133.625C61.4211 127.644 52.554 124.782 41.1255 124.782C30.0982 124.782 20.8634 128.027 13.5387 134.593C6.13985 141.225 2.24446 151.038 1.64772 163.777L1.57416 165.347H3.14607H27.5405H28.9902L29.0396 163.899C29.2309 158.297 30.1863 154.426 31.7109 152.06C33.2267 149.852 35.5818 148.668 39.0804 148.668C42.2488 148.668 44.3677 149.567 45.7284 151.127C47.1233 152.727 47.9517 155.281 47.9517 159.061C47.9517 164.975 44.3902 172.224 36.7167 180.873C29.0829 189.477 17.5735 199.252 2.13262 210.196ZM139.437 199.496L139.432 199.509C138.477 201.707 137.077 203.297 135.239 204.354C133.383 205.423 130.981 206.004 127.953 206.004C124.874 206.004 122.418 205.422 120.508 204.347C118.618 203.284 117.173 201.688 116.174 199.492C114.06 194.743 112.947 187.881 112.947 178.786C112.947 169.785 114.061 163.023 116.172 158.376C117.171 156.177 118.617 154.58 120.508 153.515C122.418 152.441 124.874 151.859 127.953 151.859C130.981 151.859 133.383 152.44 135.239 153.508C137.077 154.566 138.477 156.156 139.432 158.353L139.439 158.37L139.447 158.386C141.551 162.929 142.667 169.683 142.667 178.786C142.667 187.884 141.553 194.748 139.437 199.496ZM85.4061 55.5038C85.4061 71.7412 88.7044 84.7918 95.4618 94.5055C102.338 104.39 113.286 109.218 127.953 109.218C142.525 109.218 153.421 104.389 160.295 94.51C167.152 84.7955 170.5 71.7428 170.5 55.5038C170.5 39.3622 167.153 26.4042 160.293 16.7848C153.419 6.9081 142.523 2.08015 127.953 2.08015C113.288 2.08015 102.341 6.90655 95.4641 16.7889C88.7042 26.4074 85.4061 39.3636 85.4061 55.5038ZM85.4061 178.786C85.4061 195.024 88.7044 208.074 95.4618 217.788C102.338 227.673 113.286 232.5 127.953 232.5C142.525 232.5 153.421 227.671 160.295 217.792C167.152 208.078 170.5 195.025 170.5 178.786C170.5 162.645 167.153 149.686 160.293 140.067C153.418 130.19 142.523 125.363 127.953 125.363C113.288 125.363 102.34 130.189 95.464 140.071C88.7042 149.69 85.4061 162.646 85.4061 178.786Z" stroke="white" stroke-width="3"/>
</svg>
