<svg xmlns="http://www.w3.org/2000/svg" width="52.751" height="54.913" viewBox="0 0 52.751 54.913">
  <g id="folder" transform="translate(-0.5)">
    <path id="Tracé_1" data-name="Tracé 1" d="M88.369,154.487a3.1,3.1,0,0,1-3.1,3.1H65.636a3.1,3.1,0,0,0-3.1,3.1v26.259a3.1,3.1,0,0,0,3.1,3.1h39.889a3.1,3.1,0,0,0,3.1-3.1V154.487a3.1,3.1,0,0,0-3.1-3.1H91.473A3.1,3.1,0,0,0,88.369,154.487Zm0,0" transform="translate(-55.378 -135.147)" fill="#f9b100"/>
    <path id="Tracé_2" data-name="Tracé 2" d="M145.07,77.719h33.619v42.96H145.07Zm0,0" transform="translate(-129.065 -69.383)" fill="#e4edfb"/>
    <path id="Tracé_3" data-name="Tracé 3" d="M94.641,0h33.619V28.506H94.641Zm0,0" transform="translate(-84.044)" fill="#d7e1f2"/>
    <path id="Tracé_4" data-name="Tracé 4" d="M94.641,0h33.619V6.082H94.641Zm0,0" transform="translate(-84.044)" fill="#e4edfb"/>
    <path id="Tracé_5" data-name="Tracé 5" d="M44.207,77.719H77.826V97.89H44.207Zm0,0" transform="translate(-39.019 -69.383)" fill="#e4edfb"/>
    <path id="Tracé_6" data-name="Tracé 6" d="M46.6,154.487v32.468a3.1,3.1,0,0,1-3.1,3.1H3.6a3.1,3.1,0,0,1-3.1-3.1V160.7a3.1,3.1,0,0,1,3.1-3.1h19.63a3.1,3.1,0,0,0,3.1-3.1,3.1,3.1,0,0,1,3.1-3.1H43.494A3.1,3.1,0,0,1,46.6,154.487Zm0,0" transform="translate(0 -135.147)" fill="#de9e00"/>
    <path id="Tracé_7" data-name="Tracé 7" d="M45.253,154.487v32.468a3.1,3.1,0,0,1-3.1,3.1H3.6a3.1,3.1,0,0,1-3.1-3.1V160.7a3.1,3.1,0,0,1,3.1-3.1h19.63a3.1,3.1,0,0,0,3.1-3.1,3.1,3.1,0,0,1,3.1-3.1H42.149A3.1,3.1,0,0,1,45.253,154.487Zm0,0" transform="translate(0 -135.147)" fill="#f9b100"/>
    <path id="Tracé_8" data-name="Tracé 8" d="M106.524,112.314H86.353a.84.84,0,1,1,0-1.681h20.171a.84.84,0,1,1,0,1.681Zm0,0" transform="translate(-75.894 -98.767)" fill="#7e7e7e"/>
    <path id="Tracé_9" data-name="Tracé 9" d="M97.891,151.494H86.353a.841.841,0,1,1,0-1.681H97.891a.841.841,0,0,1,0,1.681Zm0,0" transform="translate(-75.894 -133.745)" fill="#7e7e7e"/>
    <path id="Tracé_10" data-name="Tracé 10" d="M246.029,257.907H230.859a1.156,1.156,0,0,1-1.156-1.156v-3.907a1.156,1.156,0,0,1,1.156-1.156h15.169a1.156,1.156,0,0,1,1.156,1.156v3.907A1.156,1.156,0,0,1,246.029,257.907Zm0,0" transform="translate(-204.621 -224.693)" fill="#7e7e7e"/>
  </g>
</svg>
