<svg width="108" height="154" viewBox="0 0 108 154" fill="none" xmlns="http://www.w3.org/2000/svg">
<rect x="17" y="22" width="32" height="63" rx="7" fill="#B23E47"/>
<path d="M91 35H4V70H91V35Z" fill="#161154"/>
<g filter="url(#filter0_d)">
<path d="M23.5933 22H52.5178L84.0178 52.9057H52.5178L23.5933 22Z" fill="#EA5662"/>
<path d="M23.197 85H50.1404L83.8197 52.9057H52.5178L23.197 85Z" fill="#EA5662"/>
</g>
<path d="M41.08 131.96V146H37.66V137.22L34.62 146H31.66L28.6 137.2V146H25.18V131.96H29.36L33.18 141.74L36.92 131.96H41.08ZM47.6817 134.7C48.5351 134.7 49.2684 134.893 49.8817 135.28C50.4951 135.667 50.9484 136.193 51.2417 136.86V134.84H54.6417V146H51.2417V143.98C50.9484 144.647 50.4951 145.173 49.8817 145.56C49.2684 145.947 48.5351 146.14 47.6817 146.14C46.7617 146.14 45.9351 145.913 45.2017 145.46C44.4817 144.993 43.9084 144.327 43.4817 143.46C43.0684 142.593 42.8617 141.58 42.8617 140.42C42.8617 139.247 43.0684 138.233 43.4817 137.38C43.9084 136.513 44.4817 135.853 45.2017 135.4C45.9351 134.933 46.7617 134.7 47.6817 134.7ZM48.7817 137.7C48.0484 137.7 47.4551 137.94 47.0017 138.42C46.5617 138.9 46.3417 139.567 46.3417 140.42C46.3417 141.273 46.5617 141.94 47.0017 142.42C47.4551 142.9 48.0484 143.14 48.7817 143.14C49.5017 143.14 50.0884 142.893 50.5417 142.4C51.0084 141.907 51.2417 141.247 51.2417 140.42C51.2417 139.58 51.0084 138.92 50.5417 138.44C50.0884 137.947 49.5017 137.7 48.7817 137.7ZM56.6764 131.7C56.6764 131.18 56.8631 130.753 57.2364 130.42C57.6097 130.073 58.1031 129.9 58.7164 129.9C59.3297 129.9 59.8231 130.073 60.1964 130.42C60.5697 130.753 60.7564 131.18 60.7564 131.7C60.7564 132.207 60.5697 132.633 60.1964 132.98C59.8231 133.313 59.3297 133.48 58.7164 133.48C58.1031 133.48 57.6097 133.313 57.2364 132.98C56.8631 132.633 56.6764 132.207 56.6764 131.7ZM60.4164 134.84V146H56.9964V134.84H60.4164Z" fill="white"/>
<path d="M42 94L42 124" stroke="white"/>
<defs>
<filter id="filter0_d" x="0.197021" y="0" width="106.821" height="109" filterUnits="userSpaceOnUse" color-interpolation-filters="sRGB">
<feFlood flood-opacity="0" result="BackgroundImageFix"/>
<feColorMatrix in="SourceAlpha" type="matrix" values="0 0 0 0 0 0 0 0 0 0 0 0 0 0 0 0 0 0 127 0"/>
<feOffset dy="1"/>
<feGaussianBlur stdDeviation="11.5"/>
<feColorMatrix type="matrix" values="0 0 0 0 1 0 0 0 0 0.475 0 0 0 0 0.475 0 0 0 0.7 0"/>
<feBlend mode="normal" in2="BackgroundImageFix" result="effect1_dropShadow"/>
<feBlend mode="normal" in="SourceGraphic" in2="effect1_dropShadow" result="shape"/>
</filter>
</defs>
</svg>
