<svg width="108" height="154" viewBox="0 0 108 154" fill="none" xmlns="http://www.w3.org/2000/svg">
<path d="M28.34 142.02C28.34 142.767 28.1467 143.453 27.76 144.08C27.3867 144.707 26.8267 145.207 26.08 145.58C25.3467 145.953 24.4533 146.14 23.4 146.14C21.8133 146.14 20.5067 145.753 19.48 144.98C18.4533 144.207 17.8933 143.127 17.8 141.74H21.44C21.4933 142.273 21.68 142.693 22 143C22.3333 143.307 22.7533 143.46 23.26 143.46C23.7 143.46 24.0467 143.34 24.3 143.1C24.5533 142.86 24.68 142.54 24.68 142.14C24.68 141.78 24.56 141.48 24.32 141.24C24.0933 141 23.8067 140.807 23.46 140.66C23.1133 140.5 22.6333 140.313 22.02 140.1C21.1267 139.793 20.3933 139.5 19.82 139.22C19.26 138.927 18.7733 138.5 18.36 137.94C17.96 137.367 17.76 136.627 17.76 135.72C17.76 134.88 17.9733 134.153 18.4 133.54C18.8267 132.927 19.4133 132.46 20.16 132.14C20.92 131.807 21.7867 131.64 22.76 131.64C24.3333 131.64 25.58 132.013 26.5 132.76C27.4333 133.507 27.96 134.533 28.08 135.84H24.38C24.3133 135.373 24.14 135.007 23.86 134.74C23.5933 134.46 23.2267 134.32 22.76 134.32C22.36 134.32 22.0333 134.427 21.78 134.64C21.54 134.853 21.42 135.167 21.42 135.58C21.42 135.913 21.5267 136.2 21.74 136.44C21.9667 136.667 22.2467 136.853 22.58 137C22.9133 137.147 23.3933 137.333 24.02 137.56C24.9267 137.867 25.6667 138.173 26.24 138.48C26.8133 138.773 27.3067 139.207 27.72 139.78C28.1333 140.353 28.34 141.1 28.34 142.02ZM40.8308 140.12C40.8308 140.4 40.7974 140.707 40.7308 141.04H32.9908C33.0308 141.88 33.2441 142.487 33.6308 142.86C34.0174 143.22 34.5108 143.4 35.1108 143.4C35.6174 143.4 36.0374 143.273 36.3708 143.02C36.7041 142.767 36.9241 142.44 37.0308 142.04H40.6508C40.5041 142.827 40.1841 143.533 39.6908 144.16C39.1974 144.773 38.5708 145.26 37.8108 145.62C37.0508 145.967 36.2041 146.14 35.2708 146.14C34.1774 146.14 33.2041 145.913 32.3508 145.46C31.5108 144.993 30.8508 144.327 30.3708 143.46C29.8908 142.593 29.6508 141.58 29.6508 140.42C29.6508 139.247 29.8841 138.233 30.3508 137.38C30.8308 136.513 31.4974 135.853 32.3508 135.4C33.2041 134.933 34.1774 134.7 35.2708 134.7C36.3774 134.7 37.3508 134.927 38.1908 135.38C39.0308 135.833 39.6774 136.473 40.1308 137.3C40.5974 138.113 40.8308 139.053 40.8308 140.12ZM37.3708 139.6C37.3841 138.867 37.1841 138.32 36.7708 137.96C36.3708 137.587 35.8708 137.4 35.2708 137.4C34.6441 137.4 34.1241 137.587 33.7108 137.96C33.2974 138.333 33.0641 138.88 33.0108 139.6H37.3708ZM49.5736 134.7C50.4936 134.7 51.3136 134.933 52.0336 135.4C52.7669 135.853 53.3403 136.513 53.7536 137.38C54.1803 138.233 54.3936 139.247 54.3936 140.42C54.3936 141.58 54.1803 142.593 53.7536 143.46C53.3403 144.327 52.7669 144.993 52.0336 145.46C51.3136 145.913 50.4936 146.14 49.5736 146.14C48.7203 146.14 47.9869 145.947 47.3736 145.56C46.7603 145.173 46.3136 144.647 46.0336 143.98V151.32H42.6136V134.84H46.0336V136.86C46.3136 136.193 46.7603 135.667 47.3736 135.28C47.9869 134.893 48.7203 134.7 49.5736 134.7ZM48.4736 137.7C47.7536 137.7 47.1603 137.947 46.6936 138.44C46.2403 138.92 46.0136 139.58 46.0136 140.42C46.0136 141.247 46.2403 141.907 46.6936 142.4C47.1603 142.893 47.7536 143.14 48.4736 143.14C49.2069 143.14 49.7936 142.9 50.2336 142.42C50.6869 141.94 50.9136 141.273 50.9136 140.42C50.9136 139.567 50.6869 138.9 50.2336 138.42C49.7936 137.94 49.2069 137.7 48.4736 137.7ZM62.4883 143.06V146H60.9483C59.6416 146 58.6216 145.68 57.8883 145.04C57.1683 144.387 56.8083 143.313 56.8083 141.82V137.72H55.3083V134.84H56.8083V132.1H60.2283V134.84H62.4683V137.72H60.2283V141.88C60.2283 142.32 60.3149 142.627 60.4883 142.8C60.6749 142.973 60.9816 143.06 61.4083 143.06H62.4883ZM67.3505 142.58V146H63.8105V142.58H67.3505Z" fill="white"/>
<path d="M42 94L42 124" stroke="white"/>
<rect x="14" y="35" width="86" height="35" fill="#161154"/>
<g filter="url(#filter0_d)">
<path d="M23.5933 22H52.5178L84.0178 52.9057H52.5178L23.5933 22Z" fill="#584CEE"/>
<path d="M23.197 85H50.1404L83.8197 52.9057H52.5178L23.197 85Z" fill="#584CEE"/>
</g>
<defs>
<filter id="filter0_d" x="0.197021" y="0" width="106.821" height="109" filterUnits="userSpaceOnUse" color-interpolation-filters="sRGB">
<feFlood flood-opacity="0" result="BackgroundImageFix"/>
<feColorMatrix in="SourceAlpha" type="matrix" values="0 0 0 0 0 0 0 0 0 0 0 0 0 0 0 0 0 0 127 0"/>
<feOffset dy="1"/>
<feGaussianBlur stdDeviation="11.5"/>
<feColorMatrix type="matrix" values="0 0 0 0 0.345098 0 0 0 0 0.298039 0 0 0 0 0.933333 0 0 0 0.8 0"/>
<feBlend mode="normal" in2="BackgroundImageFix" result="effect1_dropShadow"/>
<feBlend mode="normal" in="SourceGraphic" in2="effect1_dropShadow" result="shape"/>
</filter>
</defs>
</svg>
