<svg width="118" height="814" viewBox="0 0 118 814" fill="none" xmlns="http://www.w3.org/2000/svg">
<path d="M74.24 107L76.24 107L76.24 105.391L74.6678 105.046L74.24 107ZM52.32 102.2L52.7478 100.246L50.32 99.7147L50.32 102.2L52.32 102.2ZM52.32 122.84L52.32 124.84L54.32 124.84L54.32 122.84L52.32 122.84ZM31.84 122.84L29.84 122.84L29.84 124.84L31.84 124.84L31.84 122.84ZM31.84 97.88L33.84 97.88L33.84 96.2606L32.256 95.9237L31.84 97.88ZM4 91.96L2 91.96L2 93.5794L3.58401 93.9163L4 91.96ZM4 71L4.41598 69.0437L2 68.53L2 71L4 71ZM31.84 76.92L31.424 78.8763L33.84 79.39L33.84 76.92L31.84 76.92ZM31.84 47.48L33.84 47.48L33.84 45.8606L32.256 45.5237L31.84 47.48ZM4 41.56L2 41.56L2 43.1794L3.58401 43.5163L4 41.56ZM4 20.6L4.41598 18.6437L2 18.13L2 20.6L4 20.6ZM31.84 26.52L31.424 28.4763L33.84 28.99L33.84 26.52L31.84 26.52ZM31.84 2.51999L31.84 0.519994L29.84 0.519994L29.84 2.51999L31.84 2.51999ZM52.32 2.51999L54.32 2.51999L54.32 0.519995L52.32 0.519995L52.32 2.51999ZM52.32 30.84L50.32 30.84L50.32 32.4494L51.8922 32.7937L52.32 30.84ZM74.24 35.64L73.8122 37.5937L76.24 38.1253L76.24 35.64L74.24 35.64ZM74.24 12.28L74.24 10.28L72.24 10.28L72.24 12.28L74.24 12.28ZM94.72 12.28L96.72 12.28L96.72 10.28L94.72 10.28L94.72 12.28ZM94.72 39.96L92.72 39.96L92.72 41.5775L94.3017 41.9158L94.72 39.96ZM122.4 45.88L124.4 45.88L124.4 44.2625L122.818 43.9242L122.4 45.88ZM122.4 66.84L121.982 68.7958L124.4 69.313L124.4 66.84L122.4 66.84ZM94.72 60.92L95.1383 58.9642L92.72 58.447L92.72 60.92L94.72 60.92ZM94.72 90.36L92.72 90.36L92.72 91.9775L94.3017 92.3158L94.72 90.36ZM122.4 96.28L124.4 96.28L124.4 94.6625L122.818 94.3242L122.4 96.28ZM122.4 117.24L121.982 119.196L124.4 119.713L124.4 117.24L122.4 117.24ZM94.72 111.32L95.1383 109.364L92.72 108.847L92.72 111.32L94.72 111.32ZM94.72 132.6L94.72 134.6L96.72 134.6L96.72 132.6L94.72 132.6ZM74.24 132.6L72.24 132.6L72.24 134.6L74.24 134.6L74.24 132.6ZM74.24 86.04L73.8122 87.9937L76.24 88.5253L76.24 86.04L74.24 86.04ZM74.24 56.6L76.24 56.6L76.24 54.9906L74.6678 54.6463L74.24 56.6ZM52.32 51.8L52.7478 49.8463L50.32 49.3146L50.32 51.8L52.32 51.8ZM52.32 81.24L50.32 81.24L50.32 82.8494L51.8922 83.1937L52.32 81.24ZM74.6678 105.046L52.7478 100.246L51.8922 104.154L73.8122 108.954L74.6678 105.046ZM50.32 102.2L50.32 122.84L54.32 122.84L54.32 102.2L50.32 102.2ZM52.32 120.84L31.84 120.84L31.84 124.84L52.32 124.84L52.32 120.84ZM33.84 122.84L33.84 97.88L29.84 97.88L29.84 122.84L33.84 122.84ZM32.256 95.9237L4.41598 90.0037L3.58401 93.9163L31.424 99.8363L32.256 95.9237ZM6 91.96L6 71L2 71L2 91.96L6 91.96ZM3.58401 72.9563L31.424 78.8763L32.256 74.9637L4.41598 69.0437L3.58401 72.9563ZM33.84 76.92L33.84 47.48L29.84 47.48L29.84 76.92L33.84 76.92ZM32.256 45.5237L4.41598 39.6037L3.58401 43.5163L31.424 49.4363L32.256 45.5237ZM6 41.56L6 20.6L2 20.6L2 41.56L6 41.56ZM3.58401 22.5563L31.424 28.4763L32.256 24.5637L4.41598 18.6437L3.58401 22.5563ZM33.84 26.52L33.84 2.51999L29.84 2.51999L29.84 26.52L33.84 26.52ZM31.84 4.51999L52.32 4.51999L52.32 0.519995L31.84 0.519994L31.84 4.51999ZM50.32 2.51999L50.32 30.84L54.32 30.84L54.32 2.51999L50.32 2.51999ZM51.8922 32.7937L73.8122 37.5937L74.6678 33.6863L52.7478 28.8863L51.8922 32.7937ZM76.24 35.64L76.24 12.28L72.24 12.28L72.24 35.64L76.24 35.64ZM74.24 14.28L94.72 14.28L94.72 10.28L74.24 10.28L74.24 14.28ZM92.72 12.28L92.72 39.96L96.72 39.96L96.72 12.28L92.72 12.28ZM94.3017 41.9158L121.982 47.8358L122.818 43.9242L95.1383 38.0042L94.3017 41.9158ZM120.4 45.88L120.4 66.84L124.4 66.84L124.4 45.88L120.4 45.88ZM122.818 64.8842L95.1383 58.9642L94.3017 62.8758L121.982 68.7958L122.818 64.8842ZM92.72 60.92L92.72 90.36L96.72 90.36L96.72 60.92L92.72 60.92ZM94.3017 92.3158L121.982 98.2358L122.818 94.3242L95.1383 88.4042L94.3017 92.3158ZM120.4 96.28L120.4 117.24L124.4 117.24L124.4 96.28L120.4 96.28ZM122.818 115.284L95.1383 109.364L94.3017 113.276L121.982 119.196L122.818 115.284ZM92.72 111.32L92.72 132.6L96.72 132.6L96.72 111.32L92.72 111.32ZM94.72 130.6L74.24 130.6L74.24 134.6L94.72 134.6L94.72 130.6ZM76.24 132.6L76.24 107L72.24 107L72.24 132.6L76.24 132.6ZM76.24 86.04L76.24 56.6L72.24 56.6L72.24 86.04L76.24 86.04ZM74.6678 54.6463L52.7478 49.8463L51.8922 53.7537L73.8122 58.5537L74.6678 54.6463ZM50.32 51.8L50.32 81.24L54.32 81.24L54.32 51.8L50.32 51.8ZM51.8922 83.1937L73.8122 87.9937L74.6678 84.0863L52.7478 79.2863L51.8922 83.1937ZM18.88 219.707L17.851 221.422L17.8593 221.427L17.8676 221.432L18.88 219.707ZM7.19999 206.907L5.41791 207.815L5.42466 207.829L5.4316 207.842L7.19999 206.907ZM6.88 164.827L5.04983 164.021L5.04406 164.034L5.03849 164.047L6.88 164.827ZM18.72 149.627L17.5416 148.011L17.5308 148.019L17.52 148.027L18.72 149.627ZM36.64 143.227L38.64 143.227L38.64 141.065L36.4842 141.234L36.64 143.227ZM36.64 167.228L36.871 169.214L38.64 169.008L38.64 167.228L36.64 167.228ZM25.12 172.667L23.7058 171.253L23.6814 171.278L23.6579 171.303L25.12 172.667ZM24.32 196.027L25.7342 194.613L25.7342 194.613L24.32 196.027ZM42.72 196.827L41.4128 195.314L41.3953 195.329L41.3782 195.344L42.72 196.827ZM48.32 189.148L50.145 189.966L48.32 189.148ZM53.12 176.347L51.2226 175.715L53.12 176.347ZM60 159.067L58.2283 158.139L58.2196 158.156L58.2111 158.173L60 159.067ZM70.08 147.547L68.9251 145.915L68.9119 145.924L68.899 145.933L70.08 147.547ZM110.08 153.307L108.518 154.557L108.521 154.56L110.08 153.307ZM109.92 209.627L108.372 208.361L108.367 208.367L108.363 208.372L109.92 209.627ZM86.88 221.788L84.88 221.788L84.88 223.997L87.079 223.778L86.88 221.788ZM86.88 197.467L86.5681 195.492L84.88 195.759L84.88 197.467L86.88 197.467ZM96.8 192.348L95.3583 190.961L95.3442 190.976L95.3304 190.991L96.8 192.348ZM97.44 170.907L95.9036 172.188L95.919 172.206L95.9348 172.224L97.44 170.907ZM79.68 169.947L78.3784 168.429L78.3396 168.462L78.3025 168.497L79.68 169.947ZM74.4 177.467L72.586 176.625L72.5804 176.637L72.575 176.649L74.4 177.467ZM69.76 189.948L71.646 190.613L71.6539 190.591L71.6612 190.568L69.76 189.948ZM62.56 207.547L60.7711 206.653L60.767 206.661L60.7629 206.67L62.56 207.547ZM52.48 219.228L53.6425 220.855L52.48 219.228ZM34.88 222.027C29.4713 222.027 24.4881 220.68 19.8924 217.983L17.8676 221.432C23.0852 224.495 28.7687 226.027 34.88 226.027L34.88 222.027ZM19.909 217.993C15.4646 215.326 11.8092 211.351 8.96837 205.973L5.4316 207.842C8.56409 213.771 12.6954 218.329 17.851 221.422L19.909 217.993ZM8.98208 206C6.27952 200.695 4.88 194.144 4.88 186.267L0.879997 186.267C0.879996 194.605 2.36046 201.814 5.41791 207.815L8.98208 206ZM4.88 186.267C4.88 178.49 6.1757 171.616 8.72149 165.608L5.03849 164.047C2.25095 170.626 0.879997 178.045 0.879997 186.267L4.88 186.267ZM8.71017 165.634C11.3557 159.631 15.0951 154.846 19.92 151.228L17.52 148.027C12.1049 152.089 7.95097 157.438 5.04983 164.021L8.71017 165.634ZM19.8983 151.244C24.695 147.746 30.3075 145.728 36.7958 145.221L36.4842 141.234C29.3192 141.793 22.985 144.042 17.5416 148.011L19.8983 151.244ZM34.64 143.227L34.64 167.228L38.64 167.228L38.64 143.227L34.64 143.227ZM36.409 165.241C31.4014 165.823 27.1363 167.823 23.7058 171.253L26.5342 174.082C29.2904 171.326 32.7052 169.698 36.871 169.214L36.409 165.241ZM23.6579 171.303C20.2604 174.943 18.64 179.679 18.64 185.307L22.64 185.307C22.64 180.483 24.0062 176.792 26.5821 174.032L23.6579 171.303ZM18.64 185.307C18.64 190.339 19.9603 194.496 22.9058 197.442L25.7342 194.613C23.773 192.652 22.64 189.663 22.64 185.307L18.64 185.307ZM22.9058 197.442C25.8765 200.412 29.6555 201.868 34.08 201.868L34.08 197.868C30.6111 197.868 27.8835 196.763 25.7342 194.613L22.9058 197.442ZM34.08 201.868C38.0087 201.868 41.3942 200.724 44.0618 198.311L41.3782 195.344C39.5658 196.984 37.1913 197.868 34.08 197.868L34.08 201.868ZM44.0272 198.341C46.6153 196.106 48.65 193.301 50.145 189.966L46.495 188.329C45.2167 191.181 43.518 193.496 41.4128 195.314L44.0272 198.341ZM50.145 189.966C51.5711 186.784 53.1952 182.446 55.0174 176.98L51.2226 175.715C49.4181 181.129 47.8423 185.324 46.495 188.329L50.145 189.966ZM55.0174 176.98C57.3469 169.991 59.6061 164.328 61.7888 159.962L58.2111 158.173C55.9139 162.767 53.5864 168.624 51.2226 175.715L55.0174 176.98ZM61.7717 159.996C63.9665 155.805 67.1164 152.194 71.261 149.162L68.899 145.933C64.2969 149.301 60.7269 153.37 58.2283 158.139L61.7717 159.996ZM71.2349 149.18C75.1787 146.391 80.4448 144.907 87.2 144.907L87.2 140.907C79.8752 140.907 73.728 142.517 68.9251 145.915L71.2349 149.18ZM87.2 144.907C96.3638 144.907 103.39 148.146 108.518 154.557L111.642 152.058C105.677 144.602 97.4495 140.907 87.2 140.907L87.2 144.907ZM108.521 154.56C113.818 161.156 116.56 169.955 116.56 181.148L120.56 181.148C120.56 169.3 117.649 159.539 111.639 152.055L108.521 154.56ZM116.56 181.148C116.56 192.779 113.759 201.777 108.372 208.361L111.468 210.894C117.601 203.398 120.56 193.41 120.56 181.148L116.56 181.148ZM108.363 208.372C102.958 215.079 95.7785 218.888 86.681 219.797L87.079 223.778C97.1815 222.767 105.362 218.469 111.477 210.883L108.363 208.372ZM88.88 221.788L88.88 197.467L84.88 197.467L84.88 221.788L88.88 221.788ZM87.1919 199.443C91.6485 198.739 95.3771 196.838 98.2696 193.704L95.3304 190.991C93.1029 193.404 90.2182 194.916 86.5681 195.492L87.1919 199.443ZM98.2417 193.734C101.35 190.501 102.8 186.17 102.8 180.987L98.8 180.987C98.8 185.405 97.5833 188.647 95.3583 190.961L98.2417 193.734ZM102.8 180.987C102.8 176.456 101.571 172.592 98.9452 169.59L95.9348 172.224C97.7887 174.343 98.8 177.199 98.8 180.987L102.8 180.987ZM98.9764 169.627C96.3711 166.501 92.593 165.068 88 165.068L88 169.068C91.727 169.068 94.2422 170.194 95.9036 172.188L98.9764 169.627ZM88 165.068C84.2775 165.068 81.0251 166.16 78.3784 168.429L80.9816 171.466C82.8149 169.895 85.1091 169.068 88 169.068L88 165.068ZM78.3025 168.497C75.9662 170.717 74.066 173.437 72.586 176.625L76.214 178.31C77.5073 175.524 79.1271 173.231 81.0575 171.398L78.3025 168.497ZM72.575 176.649C71.1474 179.834 69.5757 184.069 67.8588 189.327L71.6612 190.568C73.3576 185.373 74.8793 181.288 76.225 178.286L72.575 176.649ZM67.874 189.282C65.3287 196.494 62.96 202.275 60.7711 206.653L64.3489 208.442C66.64 203.86 69.0713 197.908 71.646 190.613L67.874 189.282ZM60.7629 206.67C58.6801 210.934 55.5488 214.578 51.3175 217.6L53.6425 220.855C58.3712 217.477 61.9599 213.334 64.3571 208.425L60.7629 206.67ZM51.3175 217.6C47.2698 220.491 41.8477 222.027 34.88 222.027L34.88 226.027C42.419 226.027 48.7302 224.364 53.6425 220.855L51.3175 217.6ZM116.96 262.406L116.96 264.406L118.96 264.406L118.96 262.406L116.96 262.406ZM30.72 268.166L29.4184 266.648L29.399 266.664L29.3801 266.681L30.72 268.166ZM30.72 301.766L32.0421 300.266L32.0396 300.263L30.72 301.766ZM116.96 307.686L118.96 307.686L118.96 305.686L116.96 305.686L116.96 307.686ZM116.96 330.086L116.96 332.086L118.96 332.086L118.96 330.086L116.96 330.086ZM24.16 324.166L25.1159 322.409L25.1066 322.404L24.16 324.166ZM8.15999 308.006L9.94336 307.101L9.93759 307.09L8.15999 308.006ZM15.04 252.166L16.4542 253.58L15.04 252.166ZM116.96 240.006L118.96 240.006L118.96 238.006L116.96 238.006L116.96 240.006ZM116.96 260.406L50.72 260.406L50.72 264.406L116.96 264.406L116.96 260.406ZM50.72 260.406C41.6202 260.406 34.4044 262.374 29.4184 266.648L32.0216 269.685C35.9956 266.278 42.1132 264.406 50.72 264.406L50.72 260.406ZM29.3801 266.681C24.4858 271.098 22.16 277.352 22.16 285.126L26.16 285.126C26.16 278.181 28.2076 273.128 32.0599 269.651L29.3801 266.681ZM22.16 285.126C22.16 292.802 24.4915 298.959 29.4004 303.269L32.0396 300.263C28.2018 296.894 26.16 291.957 26.16 285.126L22.16 285.126ZM29.3979 303.267C34.3846 307.66 41.609 309.686 50.72 309.686L50.72 305.686C42.1243 305.686 36.0154 303.766 32.0421 300.266L29.3979 303.267ZM50.72 309.686L116.96 309.686L116.96 305.686L50.72 305.686L50.72 309.686ZM114.96 307.686L114.96 330.086L118.96 330.086L118.96 307.686L114.96 307.686ZM116.96 328.086L50.72 328.086L50.72 332.086L116.96 332.086L116.96 328.086ZM50.72 328.086C40.5136 328.086 32.008 326.16 25.1159 322.409L23.2041 325.923C30.8187 330.066 40.0197 332.086 50.72 332.086L50.72 328.086ZM25.1066 322.404C18.3032 318.749 13.2701 313.654 9.94332 307.101L6.37665 308.912C10.0899 316.226 15.7235 321.904 23.2133 325.928L25.1066 322.404ZM9.93759 307.09C6.58289 300.584 4.87999 293.119 4.87999 284.646L0.879992 284.646C0.879992 293.667 2.69708 301.776 6.38239 308.923L9.93759 307.09ZM4.87999 284.646C4.87999 271.526 8.79001 261.245 16.4542 253.58L13.6258 250.752C5.07663 259.301 0.879993 270.673 0.879992 284.646L4.87999 284.646ZM16.4542 253.58C24.0649 245.97 35.3708 242.006 50.72 242.006L50.72 238.006C34.7092 238.006 22.2284 242.149 13.6258 250.752L16.4542 253.58ZM50.72 242.006L116.96 242.006L116.96 238.006L50.72 238.006L50.72 242.006ZM114.96 240.006L114.96 262.406L118.96 262.406L118.96 240.006L114.96 240.006ZM45.92 372.425L47.92 372.425L47.92 370.425L45.92 370.425L45.92 372.425ZM3.99998 372.425L1.99998 372.425L1.99998 374.425L3.99998 374.425L3.99998 372.425ZM3.99998 349.865L3.99998 347.865L1.99998 347.865L1.99998 349.865L3.99998 349.865ZM116.96 349.865L118.96 349.865L118.96 347.865L116.96 347.865L116.96 349.865ZM107.36 421.065L105.912 419.686L105.906 419.691L105.901 419.697L107.36 421.065ZM55.52 420.745L56.9999 419.4L56.9947 419.394L56.9896 419.388L55.52 420.745ZM94.24 403.785L95.6788 405.174L94.24 403.785ZM98.72 372.425L100.72 372.425L100.72 370.425L98.72 370.425L98.72 372.425ZM64 372.425L64 370.425L62 370.425L62 372.425L64 372.425ZM45.92 370.425L3.99998 370.425L3.99998 374.425L45.92 374.425L45.92 370.425ZM5.99998 372.425L5.99998 349.865L1.99998 349.865L1.99998 372.425L5.99998 372.425ZM3.99998 351.865L116.96 351.865L116.96 347.865L3.99998 347.865L3.99998 351.865ZM114.96 349.865L114.96 390.985L118.96 390.985L118.96 349.865L114.96 349.865ZM114.96 390.985C114.96 404.029 111.829 413.473 105.912 419.686L108.808 422.444C115.691 415.217 118.96 404.608 118.96 390.985L114.96 390.985ZM105.901 419.697C99.9452 426.05 91.8186 429.305 81.28 429.305L81.28 433.305C92.7147 433.305 101.975 429.733 108.819 422.433L105.901 419.697ZM81.28 429.305C70.9876 429.305 62.9687 425.965 56.9999 419.4L54.0401 422.09C60.8713 429.605 70.0257 433.305 81.28 433.305L81.28 429.305ZM56.9896 419.388C51.0392 412.942 47.92 403.576 47.92 390.985L43.92 390.985C43.92 404.207 47.2007 414.681 54.0504 422.102L56.9896 419.388ZM47.92 390.985L47.92 372.425L43.92 372.425L43.92 390.985L47.92 390.985ZM62 388.585C62 395.444 63.4875 400.962 66.8118 404.779C70.1821 408.648 75.1343 410.425 81.28 410.425L81.28 406.425C75.9057 406.425 72.2179 404.895 69.8282 402.151C67.3924 399.355 66 394.953 66 388.585L62 388.585ZM81.28 410.425C87.2976 410.425 92.2071 408.77 95.6788 405.174L92.8012 402.396C90.2995 404.987 86.569 406.425 81.28 406.425L81.28 410.425ZM95.6788 405.174C99.1961 401.531 100.72 395.83 100.72 388.585L96.72 388.585C96.72 395.42 95.2572 399.852 92.8012 402.396L95.6788 405.174ZM100.72 388.585L100.72 372.425L96.72 372.425L96.72 388.585L100.72 388.585ZM98.72 370.425L64 370.425L64 374.425L98.72 374.425L98.72 370.425ZM62 372.425L62 388.585L66 388.585L66 372.425L62 372.425ZM21.76 441.639L23.4037 440.499L22.8071 439.639L21.76 439.639L21.76 441.639ZM96 492.199L94.7366 490.648L94.7197 490.662L94.7031 490.676L96 492.199ZM78.72 464.199L76.72 464.199L76.72 466.112L78.6312 466.197L78.72 464.199ZM78.72 442.279L78.8159 440.281L76.72 440.18L76.72 442.279L78.72 442.279ZM108.96 454.439L107.484 455.788L107.489 455.794L107.494 455.8L108.96 454.439ZM110.24 509.479L108.814 508.077L108.801 508.089L108.789 508.102L110.24 509.479ZM62.4 511.879L63.412 510.154L63.4048 510.15L62.4 511.879ZM40.48 494.279L39.012 495.637L39.0175 495.643L39.0229 495.649L40.48 494.279ZM23.36 471.719L25.0688 470.68L21.36 464.581L21.36 471.719L23.36 471.719ZM23.36 521.159L23.36 523.159L25.36 523.159L25.36 521.159L23.36 521.159ZM4.95998 521.159L2.95998 521.159L2.95998 523.159L4.95998 523.159L4.95998 521.159ZM4.95999 441.639L4.95999 439.639L2.95999 439.639L2.95999 441.639L4.95999 441.639ZM20.1163 442.778C32.6953 460.924 44.2708 474.634 54.8479 483.828C65.3869 492.989 75.1792 497.879 84.16 497.879L84.16 493.879C76.6075 493.879 67.7331 489.729 57.4721 480.809C47.2492 471.923 35.8913 458.513 23.4037 440.499L20.1163 442.778ZM84.16 497.879C89.4923 497.879 93.9516 496.571 97.2969 493.721L94.7031 490.676C92.2883 492.733 88.8543 493.879 84.16 493.879L84.16 497.879ZM97.2633 493.749C100.768 490.893 102.32 486.48 102.32 480.999L98.32 480.999C98.32 485.758 96.9918 488.811 94.7366 490.648L97.2633 493.749ZM102.32 480.999C102.32 475.211 100.316 470.542 96.1479 467.3C92.0807 464.137 86.2006 462.529 78.8088 462.201L78.6312 466.197C85.6394 466.508 90.5593 468.021 93.6921 470.457C96.7243 472.816 98.32 476.226 98.32 480.999L102.32 480.999ZM80.72 464.199L80.72 442.279L76.72 442.279L76.72 464.199L80.72 464.199ZM78.6241 444.276C91.6044 444.9 101.116 448.824 107.484 455.788L110.436 453.089C103.15 445.12 92.5022 440.938 78.8159 440.281L78.6241 444.276ZM107.494 455.8C114.042 462.851 117.36 471.785 117.36 482.759L121.36 482.759C121.36 470.906 117.745 460.96 110.426 453.078L107.494 455.8ZM117.36 482.759C117.36 494.045 114.415 502.377 108.814 508.077L111.666 510.881C118.225 504.207 121.36 494.726 121.36 482.759L117.36 482.759ZM108.789 508.102C103.253 513.935 95.8113 516.919 86.24 516.919L86.24 520.919C96.722 520.919 105.28 517.61 111.691 510.856L108.789 508.102ZM86.24 516.919C78.7604 516.919 71.1593 514.699 63.412 510.154L61.3879 513.604C69.6406 518.445 77.9329 520.919 86.24 520.919L86.24 516.919ZM63.4048 510.15C55.6908 505.667 48.5343 499.925 41.937 492.909L39.0229 495.649C45.8657 502.926 53.3225 508.917 61.3951 513.608L63.4048 510.15ZM41.9479 492.92C35.4205 485.867 29.7958 478.453 25.0688 470.68L21.6511 472.758C26.5242 480.771 32.3128 488.398 39.012 495.637L41.9479 492.92ZM21.36 471.719L21.36 521.159L25.36 521.159L25.36 471.719L21.36 471.719ZM23.36 519.159L4.95998 519.159L4.95998 523.159L23.36 523.159L23.36 519.159ZM6.95998 521.159L6.95999 441.639L2.95999 441.639L2.95998 521.159L6.95998 521.159ZM4.95999 443.639L21.76 443.639L21.76 439.639L4.95999 439.639L4.95999 443.639ZM19.36 610.024L20.4573 608.352L19.36 610.024ZM103.36 610.024L104.457 611.696L103.36 610.024ZM34.56 593.544L35.3922 591.725L35.3852 591.722L35.3781 591.719L34.56 593.544ZM34.56 560.264L33.7535 558.434L33.7346 558.442L33.7159 558.451L34.56 560.264ZM88 560.264L88.8322 558.445L88.8252 558.442L88.8181 558.439L88 560.264ZM88 593.544L87.1935 591.714L87.1746 591.722L87.1559 591.731L88 593.544ZM61.44 531.864C42.1001 531.864 27.2303 535.49 17.1578 543.065C6.97813 550.721 1.99998 562.178 1.99997 577.064L5.99997 577.064C5.99998 563.15 10.5952 553.006 19.5621 546.262C28.6363 539.437 42.4865 535.864 61.44 535.864L61.44 531.864ZM1.99997 577.064C1.99997 592.803 7.31824 604.514 18.2627 611.696L20.4573 608.352C10.9217 602.094 5.99997 591.831 5.99997 577.064L1.99997 577.064ZM18.2627 611.696C28.9453 618.706 43.4047 622.104 61.44 622.104L61.44 618.104C43.8486 618.104 30.2547 614.781 20.4573 608.352L18.2627 611.696ZM61.44 622.104C79.3714 622.104 93.7763 618.705 104.457 611.696L102.263 608.352C92.4637 614.782 78.9218 618.104 61.44 618.104L61.44 622.104ZM104.457 611.696C115.402 604.514 120.72 592.803 120.72 577.064L116.72 577.064C116.72 591.831 111.798 602.094 102.263 608.352L104.457 611.696ZM120.72 577.064C120.72 562.18 115.757 550.724 105.604 543.067C95.5581 535.49 80.7274 531.864 61.44 531.864L61.44 535.864C80.3392 535.864 94.1485 539.437 103.196 546.261C112.137 553.004 116.72 563.148 116.72 577.064L120.72 577.064ZM61.44 595.864C49.9307 595.864 41.3047 594.431 35.3922 591.725L33.7277 595.362C40.4019 598.417 49.6959 599.864 61.44 599.864L61.44 595.864ZM35.3781 591.719C32.644 590.493 30.6632 588.707 29.3427 586.362C28.0082 583.993 27.28 580.928 27.28 577.064L23.28 577.064C23.28 581.413 24.0984 585.202 25.8573 588.325C27.6301 591.473 30.2892 593.821 33.7419 595.369L35.3781 591.719ZM27.28 577.064C27.28 573.143 28.0094 570.019 29.3506 567.591C30.6784 565.187 32.6677 563.351 35.404 562.077L33.7159 558.451C30.2656 560.057 27.6149 562.46 25.8493 565.657C24.0972 568.829 23.28 572.664 23.28 577.064L27.28 577.064ZM35.3665 562.094C41.2884 559.484 49.9251 558.104 61.44 558.104L61.44 554.104C49.7015 554.104 40.4182 555.497 33.7535 558.434L35.3665 562.094ZM61.44 558.104C72.8484 558.104 81.3724 559.484 87.1819 562.089L88.8181 558.439C82.2543 555.496 73.0716 554.104 61.44 554.104L61.44 558.104ZM87.1677 562.082C89.961 563.361 91.9868 565.202 93.3364 567.604C94.6991 570.029 95.44 573.148 95.44 577.064L99.44 577.064C99.44 572.659 98.6075 568.819 96.8236 565.644C95.0265 562.446 92.3323 560.047 88.8322 558.445L87.1677 562.082ZM95.44 577.064C95.44 580.923 94.7004 583.983 93.3445 586.35C92.0022 588.693 89.9848 590.484 87.1935 591.714L88.8065 595.374C92.3085 593.831 95.0111 591.488 96.8154 588.338C98.6063 585.211 99.44 581.418 99.44 577.064L95.44 577.064ZM87.1559 591.731C81.3558 594.431 72.8426 595.864 61.44 595.864L61.44 599.864C73.0773 599.864 82.2708 598.417 88.844 595.357L87.1559 591.731ZM21.76 633.357L23.4037 632.218L22.8071 631.357L21.76 631.357L21.76 633.357ZM96 683.917L94.7366 682.367L94.7197 682.381L94.703 682.395L96 683.917ZM78.72 655.917L76.72 655.917L76.72 657.831L78.6312 657.916L78.72 655.917ZM78.72 633.997L78.8159 632L76.72 631.899L76.72 633.997L78.72 633.997ZM108.96 646.157L107.484 647.507L107.489 647.513L107.494 647.518L108.96 646.157ZM110.24 701.198L108.814 699.796L108.801 699.808L108.789 699.821L110.24 701.198ZM62.4 703.597L63.412 701.872L63.4048 701.868L62.4 703.597ZM40.48 685.997L39.012 687.356L39.0175 687.362L39.0229 687.368L40.48 685.997ZM23.36 663.437L25.0688 662.398L21.36 656.299L21.36 663.437L23.36 663.437ZM23.36 712.877L23.36 714.877L25.36 714.877L25.36 712.877L23.36 712.877ZM4.95998 712.877L2.95998 712.877L2.95998 714.877L4.95998 714.877L4.95998 712.877ZM4.95998 633.357L4.95998 631.357L2.95998 631.357L2.95998 633.357L4.95998 633.357ZM20.1163 634.497C32.6953 652.643 44.2708 666.353 54.8479 675.547C65.3869 684.708 75.1792 689.597 84.16 689.597L84.16 685.597C76.6074 685.597 67.7331 681.447 57.472 672.528C47.2491 663.642 35.8913 650.232 23.4037 632.218L20.1163 634.497ZM84.16 689.597C89.4923 689.597 93.9516 688.29 97.2969 685.44L94.703 682.395C92.2883 684.452 88.8543 685.597 84.16 685.597L84.16 689.597ZM97.2633 685.468C100.768 682.612 102.32 678.199 102.32 672.718L98.32 672.718C98.32 677.476 96.9918 680.53 94.7366 682.367L97.2633 685.468ZM102.32 672.718C102.32 666.93 100.316 662.26 96.1479 659.019C92.0807 655.855 86.2006 654.248 78.8088 653.919L78.6312 657.916C85.6394 658.227 90.5593 659.74 93.6921 662.176C96.7243 664.535 98.32 667.945 98.32 672.718L102.32 672.718ZM80.72 655.917L80.72 633.997L76.72 633.997L76.72 655.917L80.72 655.917ZM78.6241 635.995C91.6044 636.618 101.116 640.543 107.484 647.507L110.436 644.808C103.15 636.839 92.5022 632.657 78.8159 632L78.6241 635.995ZM107.494 647.518C114.042 654.57 117.36 663.503 117.36 674.477L121.36 674.477C121.36 662.625 117.745 652.679 110.426 644.797L107.494 647.518ZM117.36 674.477C117.36 685.763 114.415 694.096 108.814 699.796L111.666 702.599C118.225 695.925 121.36 686.445 121.36 674.477L117.36 674.477ZM108.789 699.821C103.253 705.653 95.8113 708.638 86.24 708.638L86.24 712.638C96.722 712.638 105.28 709.328 111.691 702.574L108.789 699.821ZM86.24 708.638C78.7604 708.638 71.1593 706.418 63.412 701.872L61.3879 705.323C69.6406 710.164 77.9329 712.638 86.24 712.638L86.24 708.638ZM63.4048 701.868C55.6908 697.386 48.5343 691.644 41.937 684.627L39.0229 687.368C45.8656 694.645 53.3225 700.636 61.3951 705.327L63.4048 701.868ZM41.9479 684.639C35.4205 677.585 29.7957 670.172 25.0688 662.398L21.6511 664.477C26.5242 672.49 32.3128 680.116 39.012 687.356L41.9479 684.639ZM21.36 663.437L21.36 712.877L25.36 712.877L25.36 663.437L21.36 663.437ZM23.36 710.877L4.95998 710.877L4.95998 714.877L23.36 714.877L23.36 710.877ZM6.95998 712.877L6.95998 633.357L2.95998 633.357L2.95998 712.877L6.95998 712.877ZM4.95998 635.357L21.76 635.357L21.76 631.357L4.95998 631.357L4.95998 635.357ZM19.36 801.742L20.4573 800.07L19.36 801.742ZM103.36 801.742L104.457 803.415L103.36 801.742ZM34.56 785.263L35.3922 783.444L35.3852 783.441L35.3781 783.437L34.56 785.263ZM34.56 751.982L33.7534 750.152L33.7346 750.161L33.7159 750.169L34.56 751.982ZM88 751.982L88.8322 750.164L88.8252 750.161L88.8181 750.157L88 751.982ZM88 785.263L87.1935 783.432L87.1746 783.441L87.1559 783.449L88 785.263ZM61.44 723.583C42.1001 723.583 27.2303 727.209 17.1578 734.784C6.97812 742.44 1.99997 753.897 1.99997 768.782L5.99997 768.782C5.99997 754.868 10.5952 744.725 19.5621 737.981C28.6363 731.156 42.4865 727.583 61.44 727.583L61.44 723.583ZM1.99997 768.782C1.99997 784.521 7.31823 796.232 18.2626 803.415L20.4573 800.07C10.9217 793.813 5.99997 783.55 5.99997 768.782L1.99997 768.782ZM18.2626 803.415C28.9453 810.425 43.4047 813.823 61.44 813.823L61.44 809.823C43.8486 809.823 30.2546 806.5 20.4573 800.07L18.2626 803.415ZM61.44 813.823C79.3714 813.823 93.7763 810.424 104.457 803.415L102.263 800.07C92.4636 806.501 78.9218 809.823 61.44 809.823L61.44 813.823ZM104.457 803.415C115.402 796.232 120.72 784.521 120.72 768.782L116.72 768.782C116.72 783.55 111.798 793.813 102.263 800.07L104.457 803.415ZM120.72 768.782C120.72 753.899 115.757 742.443 105.604 734.786C95.5581 727.209 80.7274 723.583 61.44 723.583L61.44 727.583C80.3392 727.583 94.1485 731.156 103.196 737.979C112.137 744.722 116.72 754.866 116.72 768.782L120.72 768.782ZM61.44 787.583C49.9307 787.583 41.3047 786.15 35.3922 783.444L33.7277 787.081C40.4019 790.135 49.6959 791.583 61.44 791.583L61.44 787.583ZM35.3781 783.437C32.644 782.212 30.6632 780.426 29.3427 778.081C28.0082 775.711 27.28 772.647 27.28 768.782L23.28 768.782C23.28 773.132 24.0984 776.92 25.8573 780.044C27.6301 783.192 30.2892 785.54 33.7419 787.088L35.3781 783.437ZM27.28 768.782C27.28 764.862 28.0094 761.738 29.3506 759.31C30.6783 756.906 32.6677 755.069 35.404 753.796L33.7159 750.169C30.2655 751.776 27.6149 754.179 25.8493 757.375C24.0972 760.547 23.28 764.383 23.28 768.782L27.28 768.782ZM35.3665 753.813C41.2884 751.203 49.9251 749.823 61.44 749.823L61.44 745.823C49.7015 745.823 40.4182 747.215 33.7534 750.152L35.3665 753.813ZM61.44 749.823C72.8483 749.823 81.3724 751.203 87.1819 753.807L88.8181 750.157C82.2543 747.215 73.0716 745.823 61.44 745.823L61.44 749.823ZM87.1677 753.801C89.961 755.079 91.9868 756.92 93.3364 759.322C94.6991 761.747 95.44 764.867 95.44 768.782L99.44 768.782C99.44 764.378 98.6075 760.538 96.8236 757.363C95.0265 754.165 92.3323 751.766 88.8322 750.164L87.1677 753.801ZM95.44 768.782C95.44 772.642 94.7003 775.701 93.3445 778.068C92.0022 780.412 89.9848 782.202 87.1935 783.432L88.8065 787.093C92.3085 785.549 95.0111 783.206 96.8154 780.057C98.6063 776.93 99.44 773.137 99.44 768.782L95.44 768.782ZM87.1559 783.449C81.3558 786.149 72.8426 787.583 61.44 787.583L61.44 791.583C73.0773 791.583 82.2708 790.136 88.844 787.076L87.1559 783.449Z" fill="#E5E5E5"/>
</svg>
