<?xml version="1.0" encoding="utf-8"?>
<!-- Generator: Adobe Illustrator 24.0.3, SVG Export Plug-In . SVG Version: 6.00 Build 0)  -->
<svg version="1.1" id="Calque_1" xmlns="http://www.w3.org/2000/svg" xmlns:xlink="http://www.w3.org/1999/xlink" x="0px" y="0px"
	 viewBox="0 0 115.4 138" style="enable-background:new 0 0 115.4 138;" xml:space="preserve">
<style type="text/css">
	.st0{clip-path:url(#SVGID_2_);}
	.st1{clip-path:url(#SVGID_4_);enable-background:new    ;}
	.st2{clip-path:url(#SVGID_6_);}
	.st3{clip-path:url(#SVGID_8_);}
	.st4{clip-path:url(#SVGID_10_);fill:#FDC309;}
	.st5{clip-path:url(#SVGID_12_);fill:none;stroke:#251E1E;stroke-width:10;stroke-miterlimit:10;}
	.st6{clip-path:url(#SVGID_14_);}
	.st7{clip-path:url(#SVGID_16_);enable-background:new    ;}
	.st8{clip-path:url(#SVGID_18_);}
	.st9{clip-path:url(#SVGID_20_);}
	.st10{clip-path:url(#SVGID_22_);fill:#FDC309;}
	.st11{clip-path:url(#SVGID_24_);fill:none;stroke:#251E1E;stroke-width:10;stroke-miterlimit:10;}
</style>
<g>
	<defs>
		<polygon id="SVGID_1_" points="115.4,77.6 57.7,138 0,77.6 26.9,77.6 26.9,0 88.8,0 88.8,77.6 		"/>
	</defs>
	<clipPath id="SVGID_2_">
		<use xlink:href="#SVGID_1_"  style="overflow:visible;"/>
	</clipPath>
	<g class="st0">
		<defs>
			<rect id="SVGID_3_" x="-903" y="-389" width="1920" height="1080"/>
		</defs>
		<clipPath id="SVGID_4_">
			<use xlink:href="#SVGID_3_"  style="overflow:visible;"/>
		</clipPath>
		<g class="st1">
			<g>
				<defs>
					<rect id="SVGID_5_" x="-50" y="-50" width="216" height="238"/>
				</defs>
				<clipPath id="SVGID_6_">
					<use xlink:href="#SVGID_5_"  style="overflow:visible;"/>
				</clipPath>
				<g class="st2">
					<defs>
						<polygon id="SVGID_7_" points="115.4,77.6 57.7,138 0,77.6 26.9,77.6 26.9,0 88.8,0 88.8,77.6 						"/>
					</defs>
					<clipPath id="SVGID_8_">
						<use xlink:href="#SVGID_7_"  style="overflow:visible;"/>
					</clipPath>
					<g class="st3">
						<defs>
							<rect id="SVGID_9_" width="116" height="138"/>
						</defs>
						<clipPath id="SVGID_10_">
							<use xlink:href="#SVGID_9_"  style="overflow:visible;"/>
						</clipPath>
						<polygon class="st4" points="115.4,77.6 57.7,138 0,77.6 26.9,77.6 26.9,0 88.8,0 88.8,77.6 						"/>
					</g>
				</g>
				<g class="st2">
					<defs>
						<rect id="SVGID_11_" width="116" height="138"/>
					</defs>
					<clipPath id="SVGID_12_">
						<use xlink:href="#SVGID_11_"  style="overflow:visible;"/>
					</clipPath>
					<polygon class="st5" points="115.4,77.6 57.7,138 0,77.6 26.9,77.6 26.9,0 88.8,0 88.8,77.6 					"/>
				</g>
			</g>
		</g>
	</g>
</g>
<g>
	<defs>
		<polygon id="SVGID_13_" points="31.1,345.2 162.6,345.2 183.1,282.6 126.6,313.9 98.2,272.4 71,313.9 12.7,282.6 		"/>
	</defs>
	<clipPath id="SVGID_14_">
		<use xlink:href="#SVGID_13_"  style="overflow:visible;"/>
	</clipPath>
	<g class="st6">
		<defs>
			<rect id="SVGID_15_" x="-862.3" y="-301.6" width="1920" height="1080"/>
		</defs>
		<clipPath id="SVGID_16_">
			<use xlink:href="#SVGID_15_"  style="overflow:visible;"/>
		</clipPath>
	</g>
</g>
</svg>
