<?xml version="1.0" encoding="utf-8"?>
<!-- Generator: Adobe Illustrator 24.0.3, SVG Export Plug-In . SVG Version: 6.00 Build 0)  -->
<svg version="1.1" id="Calque_1" xmlns="http://www.w3.org/2000/svg" xmlns:xlink="http://www.w3.org/1999/xlink" x="0px" y="0px"
	 viewBox="0 0 171 73" style="enable-background:new 0 0 171 73;" xml:space="preserve">
<style type="text/css">
	.st0{clip-path:url(#SVGID_2_);}
	.st1{clip-path:url(#SVGID_4_);enable-background:new    ;}
	.st2{clip-path:url(#SVGID_6_);}
	.st3{clip-path:url(#SVGID_8_);}
	.st4{clip-path:url(#SVGID_10_);fill:#FDC309;}
	.st5{clip-path:url(#SVGID_12_);fill:none;stroke:#251E1E;stroke-width:10;stroke-miterlimit:10;}
	.st6{clip-path:url(#SVGID_14_);}
	.st7{clip-path:url(#SVGID_16_);enable-background:new    ;}
	.st8{clip-path:url(#SVGID_18_);}
	.st9{clip-path:url(#SVGID_20_);}
	.st10{clip-path:url(#SVGID_22_);fill:#FDC309;}
	.st11{clip-path:url(#SVGID_24_);fill:none;stroke:#251E1E;stroke-width:10;stroke-miterlimit:10;}
</style>
<g>
	<defs>
		<polygon id="SVGID_1_" points="102.7,-194.8 45,-134.4 -12.7,-194.8 14.2,-194.8 14.2,-272.4 76.1,-272.4 76.1,-194.8 		"/>
	</defs>
	<clipPath id="SVGID_2_">
		<use xlink:href="#SVGID_1_"  style="overflow:visible;"/>
	</clipPath>
	<g class="st0">
		<defs>
			<rect id="SVGID_3_" x="-915.7" y="-661.4" width="1920" height="1080"/>
		</defs>
		<clipPath id="SVGID_4_">
			<use xlink:href="#SVGID_3_"  style="overflow:visible;"/>
		</clipPath>
	</g>
</g>
<g>
	<defs>
		<polygon id="SVGID_13_" points="18.5,72.8 150,72.8 170.5,10.2 114,41.5 85.5,0 58.4,41.5 0,10.2 		"/>
	</defs>
	<clipPath id="SVGID_6_">
		<use xlink:href="#SVGID_13_"  style="overflow:visible;"/>
	</clipPath>
	<g class="st2">
		<defs>
			<rect id="SVGID_15_" x="-875" y="-574" width="1920" height="1080"/>
		</defs>
		<clipPath id="SVGID_8_">
			<use xlink:href="#SVGID_15_"  style="overflow:visible;"/>
		</clipPath>
		<g style="clip-path:url(#SVGID_8_);enable-background:new    ;">
			<g>
				<defs>
					<rect id="SVGID_17_" x="-51" y="-50" width="272" height="173"/>
				</defs>
				<clipPath id="SVGID_10_">
					<use xlink:href="#SVGID_17_"  style="overflow:visible;"/>
				</clipPath>
				<g style="clip-path:url(#SVGID_10_);">
					<defs>
						<polygon id="SVGID_19_" points="18.5,72.8 150,72.8 170.5,10.2 114,41.5 85.5,0 58.4,41.5 0,10.2 						"/>
					</defs>
					<clipPath id="SVGID_12_">
						<use xlink:href="#SVGID_19_"  style="overflow:visible;"/>
					</clipPath>
					<g style="clip-path:url(#SVGID_12_);">
						<defs>
							<rect id="SVGID_21_" width="171" height="73"/>
						</defs>
						<clipPath id="SVGID_14_">
							<use xlink:href="#SVGID_21_"  style="overflow:visible;"/>
						</clipPath>
						<polygon style="clip-path:url(#SVGID_14_);fill:#FDC309;" points="18.5,72.8 150,72.8 170.5,10.2 114,41.5 85.5,0 58.4,41.5 
							0,10.2 						"/>
					</g>
				</g>
				<g style="clip-path:url(#SVGID_10_);">
					<defs>
						<rect id="SVGID_23_" width="171" height="73"/>
					</defs>
					<clipPath id="SVGID_16_">
						<use xlink:href="#SVGID_23_"  style="overflow:visible;"/>
					</clipPath>
					<polygon style="clip-path:url(#SVGID_16_);fill:none;stroke:#251E1E;stroke-width:10;stroke-miterlimit:10;" points="
						18.5,72.8 150,72.8 170.5,10.2 114,41.5 85.5,0 58.4,41.5 0,10.2 					"/>
				</g>
			</g>
		</g>
	</g>
</g>
</svg>
