<svg xmlns="http://www.w3.org/2000/svg" xmlns:xlink="http://www.w3.org/1999/xlink" viewBox="0 0 82.99 144.55"><defs><style>.cls-1,.cls-10,.cls-2,.cls-3{fill:none;}.cls-1{clip-rule:evenodd;}.cls-3{fill-rule:evenodd;}.cls-4{clip-path:url(#clip-path);}.cls-5{clip-path:url(#clip-path-2);}.cls-6{isolation:isolate;}.cls-7{clip-path:url(#clip-path-3);}.cls-8{clip-path:url(#clip-path-5);}.cls-9{fill:#fff;}.cls-10{stroke:#100707;stroke-miterlimit:10;stroke-width:10px;}.cls-11{clip-path:url(#clip-path-7);}</style><clipPath id="clip-path"><path class="cls-1" d="M58,16.48,0,0Q33.18,24,36.47,47.41T-1.09,85q36.35,5.86,39.75,14.8T20.74,144.52l61.59-37.31Q63.43,95.33,58,65.57T58,16.48Z"/></clipPath><clipPath id="clip-path-2"><rect class="cls-2" x="-881.01" y="-291.45" width="1920" height="3915"/></clipPath><clipPath id="clip-path-3"><rect class="cls-2" x="-58.01" y="-43.45" width="197" height="231"/></clipPath><clipPath id="clip-path-5"><rect class="cls-2" x="-1.01" y="-0.45" width="84" height="145"/></clipPath><clipPath id="clip-path-7"><path class="cls-1" d="M397.37,231.49q33.6,12,33.59,33.87a108,108,0,0,1-1.16,14.37A74,74,0,0,1,470,345.55V447.49a74,74,0,0,1-74,74H70a74,74,0,0,1-74-74V345.55a74,74,0,0,1,74-74H396q3.12,0,6.16.26Q410,265.15,410,259,410,245.87,397.37,231.49Z"/></clipPath></defs><title>Sans titre - 3</title><g id="Calque_8" data-name="Calque 8"><g class="cls-4"><g class="cls-5"><g class="cls-6"><g class="cls-7"><g class="cls-4"><g class="cls-8"><path class="cls-9" d="M58,16.48,0,0Q33.18,24,36.47,47.41T-1.09,85q36.35,5.86,39.75,14.8T20.74,144.52l61.59-37.31Q63.43,95.33,58,65.57T58,16.48Z"/></g></g><g class="cls-8"><path class="cls-10" d="M58,16.48,0,0Q33.18,24,36.47,47.41T-1.09,85q36.35,5.86,39.75,14.8T20.74,144.52l61.59-37.31Q63.43,95.33,58,65.57T58,16.48Z"/></g></g></g></g></g></g></svg>