<?xml version="1.0" encoding="utf-8"?>
<!-- Generator: Adobe Illustrator 24.0.3, SVG Export Plug-In . SVG Version: 6.00 Build 0)  -->
<svg version="1.1" id="Calque_1" xmlns="http://www.w3.org/2000/svg" xmlns:xlink="http://www.w3.org/1999/xlink" x="0px" y="0px"
	 viewBox="0 0 126.2 132.7" style="enable-background:new 0 0 126.2 132.7;" xml:space="preserve">
<style type="text/css">
	.st0{clip-path:url(#SVGID_2_);}
	.st1{fill:#EC6807;}
	.st2{clip-path:url(#SVGID_4_);}
	.st3{fill:none;stroke:#100707;stroke-width:8;stroke-miterlimit:10;}
	.st4{clip-path:url(#SVGID_6_);}
	.st5{fill:#FFFFFF;}
	.st6{fill:none;stroke:#100707;stroke-width:5;stroke-miterlimit:10;}
</style>
<g>
	<defs>
		<rect id="SVGID_1_" x="46.5" y="7.8" transform="matrix(0.454 -0.891 0.891 0.454 4.8755 89.5978)" width="58" height="66"/>
	</defs>
	<clipPath id="SVGID_2_">
		<use xlink:href="#SVGID_1_"  style="overflow:visible;"/>
	</clipPath>
	<g class="st0">
		<rect x="46.5" y="7.8" transform="matrix(0.454 -0.891 0.891 0.454 4.8755 89.5978)" class="st1" width="58" height="66"/>
	</g>
</g>
<g>
	<defs>
		<rect id="SVGID_3_" x="46.5" y="7.8" transform="matrix(0.454 -0.891 0.891 0.454 4.8755 89.5978)" width="58" height="66"/>
	</defs>
	<clipPath id="SVGID_4_">
		<use xlink:href="#SVGID_3_"  style="overflow:visible;"/>
	</clipPath>
	<g class="st2">
		<rect x="46.5" y="7.8" transform="matrix(0.454 -0.891 0.891 0.454 4.8755 89.5979)" class="st3" width="58" height="66"/>
	</g>
</g>
<g>
	<defs>
		<path id="SVGID_5_" d="M3.3,61.2h121 M63.3,29l59.6,29.7l0.9,0V130H2.8V58.7l0.9,0L63.3,29z"/>
	</defs>
	<clipPath id="SVGID_6_">
		<use xlink:href="#SVGID_5_"  style="overflow:visible;"/>
	</clipPath>
	<g class="st4">
		<rect x="-2.2" y="24" class="st5" width="131.5" height="111"/>
	</g>
</g>
<g>
	<path class="st6" d="M3.3,61.2h121 M63.3,29l59.6,29.7l0.9,0V130H2.8V58.7l0.9,0L63.3,29z"/>
</g>
</svg>
