<svg xmlns="http://www.w3.org/2000/svg" xmlns:xlink="http://www.w3.org/1999/xlink" viewBox="0 0 147 180"><defs><style>.cls-1,.cls-11,.cls-2,.cls-3{fill:none;}.cls-1{clip-rule:evenodd;}.cls-3{fill-rule:evenodd;}.cls-4{clip-path:url(#clip-path);}.cls-5{clip-path:url(#clip-path-2);}.cls-6{clip-path:url(#clip-path-3);}.cls-7{isolation:isolate;}.cls-8{clip-path:url(#clip-path-4);}.cls-9{clip-path:url(#clip-path-6);}.cls-10{fill:#eb5d0b;}.cls-11{stroke:#100707;stroke-miterlimit:10;stroke-width:10px;}.cls-12{clip-path:url(#clip-path-8);}</style><clipPath id="clip-path"><polygon class="cls-1" points="777.4 1122.12 839.36 1040.09 802.19 1019.48 777.4 1122.12"/></clipPath><clipPath id="clip-path-2"><polygon class="cls-1" points="771.79 1118.56 785.7 1041 752.72 1039.85 771.79 1118.56"/></clipPath><clipPath id="clip-path-3"><path class="cls-1" d="M-1-17,80.79-8.43Q74.44,115.59,94.68,127q4.69,2.64,19.61,2.62V111L147,145.48,114.29,180V162.25Q94.1,166.2,70,158.63,15.42,141.47-1-17Z"/></clipPath><clipPath id="clip-path-4"><rect class="cls-2" x="-51" y="-67" width="248" height="297"/></clipPath><clipPath id="clip-path-6"><rect class="cls-2" width="147" height="180"/></clipPath><clipPath id="clip-path-8"><path class="cls-1" d="M-914.31-2046.85q33.59,12,33.59,33.87a106.31,106.31,0,0,1-1.17,14.36,74,74,0,0,1,40.17,65.83v101.94a74,74,0,0,1-74,74h-326a74,74,0,0,1-74-74v-101.94a74,74,0,0,1,74-74h326q3.11,0,6.16.25,7.83-6.64,7.84-12.85Q-901.72-2032.47-914.31-2046.85Z"/></clipPath></defs><title>Sans titre - 3</title><g id="Calque_8" data-name="Calque 8"><g class="cls-6"><g class="cls-7"><g class="cls-8"><g class="cls-6"><g class="cls-9"><path class="cls-10" d="M-1-17,80.79-8.43Q74.44,115.59,94.68,127q4.69,2.64,19.61,2.62V111L147,145.48,114.29,180V162.25Q94.1,166.2,70,158.63,15.42,141.47-1-17Z"/></g></g><g class="cls-9"><path class="cls-11" d="M-1-17,80.79-8.43Q74.44,115.59,94.68,127q4.69,2.64,19.61,2.62V111L147,145.48,114.29,180V162.25Q94.1,166.2,70,158.63,15.42,141.47-1-17Z"/></g></g></g></g></g></svg>