<svg xmlns="http://www.w3.org/2000/svg" xmlns:xlink="http://www.w3.org/1999/xlink" viewBox="0 0 591.63 156.92"><defs><style>.cls-1,.cls-18,.cls-2,.cls-3,.cls-34{fill:none;}.cls-1{clip-rule:evenodd;}.cls-3{fill-rule:evenodd;}.cls-4{clip-path:url(#clip-path);}.cls-5{clip-path:url(#clip-path-2);}.cls-6{clip-path:url(#clip-path-3);}.cls-7{clip-path:url(#clip-path-4);}.cls-8{clip-path:url(#clip-path-5);}.cls-9{clip-path:url(#clip-path-6);}.cls-10{clip-path:url(#clip-path-7);}.cls-11{clip-path:url(#clip-path-8);}.cls-12{clip-path:url(#clip-path-9);}.cls-13{clip-path:url(#clip-path-10);}.cls-14{isolation:isolate;}.cls-15{clip-path:url(#clip-path-11);}.cls-16{clip-path:url(#clip-path-13);}.cls-17{fill:#eb5d0b;}.cls-18,.cls-34{stroke:#100707;stroke-miterlimit:10;}.cls-18{stroke-width:10px;}.cls-19{clip-path:url(#clip-path-15);}.cls-20{clip-path:url(#clip-path-19);}.cls-21{clip-path:url(#clip-path-23);}.cls-22{clip-path:url(#clip-path-27);}.cls-23{clip-path:url(#clip-path-31);}.cls-24{clip-path:url(#clip-path-35);}.cls-25{clip-path:url(#clip-path-39);}.cls-26{clip-path:url(#clip-path-43);}.cls-27{clip-path:url(#clip-path-47);}.cls-28{clip-path:url(#clip-path-48);}.cls-29{clip-path:url(#clip-path-49);}.cls-30{clip-path:url(#clip-path-51);}.cls-31{clip-path:url(#clip-path-53);}.cls-32{clip-path:url(#clip-path-55);}.cls-33{clip-path:url(#clip-path-57);}.cls-34{stroke-width:10px;}</style><clipPath id="clip-path"><path class="cls-1" d="M1637.54-538.27q-151.59,50-366.85,50c-215.26,0-376.64-50-593.15-50s-435.72,50-594.55,50q-158.83,0-365.45-50v-102h1v-782h1919Z"/></clipPath><clipPath id="clip-path-2"><path class="cls-1" d="M-282.46-682.27v-783h1919v885q-151.59,50-366.85,50c-215.26,0-376.64-50-593.15-50s-435.72,50-594.55,50q-158.83,0-365.45-50v-102Z"/></clipPath><clipPath id="clip-path-3"><path class="cls-1" d="M-281.46-720.27v-783h1919v885q-151.59,50-366.85,50c-215.26,0-376.64-50-593.15-50s-435.72,50-594.55,50q-158.83,0-365.45-50v-102Z"/></clipPath><clipPath id="clip-path-4"><path class="cls-1" d="M1604.58-1791.3Q1453-1736,1237.73-1736c-215.26,0-376.64-55.28-593.15-55.28S208.86-1736,50-1736q-158.83,0-365.45-55.28v-112.77h1v-867.27h1919Z"/></clipPath><clipPath id="clip-path-5"><path class="cls-1" d="M-315.42-1951.29v-868.27h1919v981q-151.59,55.27-366.85,55.28c-215.26,0-376.64-55.28-593.15-55.28S207.86-1783.24,49-1783.24q-158.83,0-365.45-55.28v-112.77Z"/></clipPath><clipPath id="clip-path-6"><path class="cls-1" d="M-314.42-1993.13V-2861.4h1919v981q-151.59,55.27-366.85,55.28c-215.26,0-376.64-55.28-593.15-55.28S208.86-1825.08,50-1825.08q-158.83,0-365.45-55.28v-112.77Z"/></clipPath><clipPath id="clip-path-7"><polygon class="cls-1" points="591.8 -104.52 529.84 -186.56 567.01 -207.16 591.8 -104.52"/></clipPath><clipPath id="clip-path-8"><polygon class="cls-1" points="597.41 -108.08 583.5 -185.64 616.48 -186.79 597.41 -108.08"/></clipPath><clipPath id="clip-path-9"><polygon class="cls-1" points="66.56 81.28 27.27 118.78 66.56 156.28 66.56 138.82 116.99 138.82 116.99 98.56 66.56 98.56 66.56 81.28"/></clipPath><clipPath id="clip-path-10"><rect class="cls-2" x="26.63" y="80.92" width="565" height="76"/></clipPath><clipPath id="clip-path-11"><rect class="cls-2" x="-23.37" y="31" width="191" height="176"/></clipPath><clipPath id="clip-path-13"><rect class="cls-2" x="26.63" y="81" width="91" height="76"/></clipPath><clipPath id="clip-path-15"><rect class="cls-2" x="136.99" y="96.92" width="43" height="43"/></clipPath><clipPath id="clip-path-19"><rect class="cls-2" x="199.99" y="96.92" width="43" height="43"/></clipPath><clipPath id="clip-path-23"><rect class="cls-2" x="262.99" y="96.92" width="43" height="43"/></clipPath><clipPath id="clip-path-27"><rect class="cls-2" x="325.99" y="96.92" width="43" height="43"/></clipPath><clipPath id="clip-path-31"><rect class="cls-2" x="388.99" y="96.92" width="43" height="43"/></clipPath><clipPath id="clip-path-35"><rect class="cls-2" x="451.99" y="96.92" width="43" height="43"/></clipPath><clipPath id="clip-path-39"><rect class="cls-2" x="514.99" y="96.92" width="43" height="43"/></clipPath><clipPath id="clip-path-43"><rect class="cls-2" x="577.99" y="96.92" width="43" height="43"/></clipPath><clipPath id="clip-path-47"><polygon class="cls-1" points="24.68 102.64 86.64 20.6 49.47 0 24.68 102.64"/></clipPath><clipPath id="clip-path-48"><rect class="cls-2" x="-1328.37" y="-2651" width="1920" height="3915"/></clipPath><clipPath id="clip-path-49"><rect class="cls-2" x="-43.37" y="-20" width="198" height="143"/></clipPath><clipPath id="clip-path-51"><rect class="cls-2" x="24.63" width="63" height="103"/></clipPath><clipPath id="clip-path-53"><polygon class="cls-1" points="19.07 99.08 32.98 21.52 0 20.37 19.07 99.08"/></clipPath><clipPath id="clip-path-55"><rect class="cls-2" x="-52.37" y="-28" width="138" height="176"/></clipPath><clipPath id="clip-path-57"><rect class="cls-2" x="-0.37" y="20" width="34" height="80"/></clipPath></defs><title>Sans titre - 3</title><g id="Calque_4" data-name="Calque 4"><g class="cls-12"><g class="cls-13"><g class="cls-14"><g class="cls-15"><g class="cls-12"><g class="cls-16"><polygon class="cls-17" points="66.56 81.28 27.27 118.78 66.56 156.28 66.56 138.82 116.99 138.82 116.99 98.56 66.56 98.56 66.56 81.28"/></g></g><g class="cls-16"><polygon class="cls-18" points="66.56 81.28 27.27 118.78 66.56 156.28 66.56 138.82 116.99 138.82 116.99 98.56 66.56 98.56 66.56 81.28"/></g></g></g></g></g><g class="cls-19"><g class="cls-13"><rect class="cls-17" x="136.99" y="96.92" width="43" height="43"/></g></g><g class="cls-19"><g class="cls-13"><rect class="cls-18" x="136.99" y="96.92" width="43" height="43"/></g></g><g class="cls-20"><g class="cls-13"><rect class="cls-17" x="199.99" y="96.92" width="43" height="43"/></g></g><g class="cls-20"><g class="cls-13"><rect class="cls-18" x="199.99" y="96.92" width="43" height="43"/></g></g><g class="cls-21"><g class="cls-13"><rect class="cls-17" x="262.99" y="96.92" width="43" height="43"/></g></g><g class="cls-21"><g class="cls-13"><rect class="cls-18" x="262.99" y="96.92" width="43" height="43"/></g></g><g class="cls-22"><g class="cls-13"><rect class="cls-17" x="325.99" y="96.92" width="43" height="43"/></g></g><g class="cls-22"><g class="cls-13"><rect class="cls-18" x="325.99" y="96.92" width="43" height="43"/></g></g><g class="cls-23"><g class="cls-13"><rect class="cls-17" x="388.99" y="96.92" width="43" height="43"/></g></g><g class="cls-23"><g class="cls-13"><rect class="cls-18" x="388.99" y="96.92" width="43" height="43"/></g></g><g class="cls-24"><g class="cls-13"><rect class="cls-17" x="451.99" y="96.92" width="43" height="43"/></g></g><g class="cls-24"><g class="cls-13"><rect class="cls-18" x="451.99" y="96.92" width="43" height="43"/></g></g><g class="cls-25"><g class="cls-13"><rect class="cls-17" x="514.99" y="96.92" width="43" height="43"/></g></g><g class="cls-25"><g class="cls-13"><rect class="cls-18" x="514.99" y="96.92" width="43" height="43"/></g></g><g class="cls-26"><g class="cls-13"><rect class="cls-17" x="577.99" y="96.92" width="43" height="43"/></g></g><g class="cls-26"><g class="cls-13"><rect class="cls-18" x="577.99" y="96.92" width="43" height="43"/></g></g><g class="cls-27"><g class="cls-28"><g class="cls-14"><g class="cls-29"><g class="cls-27"><g class="cls-30"><polygon class="cls-17" points="24.68 102.64 86.64 20.6 49.47 0 24.68 102.64"/></g></g><g class="cls-30"><polygon class="cls-18" points="24.68 102.64 86.64 20.6 49.47 0 24.68 102.64"/></g></g></g></g></g><g class="cls-31"><g class="cls-28"><g class="cls-14"><g class="cls-32"><g class="cls-31"><g class="cls-33"><polygon class="cls-17" points="19.07 99.08 32.98 21.52 0 20.37 19.07 99.08"/></g></g><g class="cls-33"><polygon class="cls-34" points="19.07 99.08 32.98 21.52 0 20.37 19.07 99.08"/></g></g></g></g></g></g></svg>