<svg xmlns="http://www.w3.org/2000/svg" xmlns:xlink="http://www.w3.org/1999/xlink" viewBox="0 0 103 64.62"><defs><style>.cls-1,.cls-11,.cls-2,.cls-3{fill:none;}.cls-1{clip-rule:evenodd;}.cls-3{fill-rule:evenodd;}.cls-4{clip-path:url(#clip-path);}.cls-5{clip-path:url(#clip-path-2);}.cls-6{clip-path:url(#clip-path-3);}.cls-7{isolation:isolate;}.cls-8{clip-path:url(#clip-path-4);}.cls-9{clip-path:url(#clip-path-6);}.cls-10{fill:#eb5d0b;}.cls-11{stroke:#100707;stroke-miterlimit:10;stroke-width:10px;}.cls-12{clip-path:url(#clip-path-8);}</style><clipPath id="clip-path"><polygon class="cls-1" points="729.36 1254.13 791.32 1172.1 754.15 1151.49 729.36 1254.13"/></clipPath><clipPath id="clip-path-2"><polygon class="cls-1" points="723.75 1250.58 737.66 1173.02 704.68 1171.86 723.75 1250.58"/></clipPath><clipPath id="clip-path-3"><path class="cls-1" d="M0,0H41Q43.09,14.12,53.6,16.38t16.72-2.15V-4.38L103,30.12,70.32,64.62V46.89q-21,7.59-44.23-3.63T0,0Z"/></clipPath><clipPath id="clip-path-4"><rect class="cls-2" x="-50" y="-54.38" width="203" height="169"/></clipPath><clipPath id="clip-path-6"><rect class="cls-2" y="-4.38" width="103" height="69"/></clipPath><clipPath id="clip-path-8"><path class="cls-1" d="M-962.35-1914.84q33.58,12,33.58,33.87a106.11,106.11,0,0,1-1.16,14.36,74,74,0,0,1,40.16,65.83v101.94a74,74,0,0,1-74,74h-326a74,74,0,0,1-74-74v-101.94a74,74,0,0,1,74-74h326q3.12,0,6.16.25,7.85-6.65,7.84-12.84Q-949.77-1900.46-962.35-1914.84Z"/></clipPath></defs><title>Sans titre - 3</title><g id="Calque_8" data-name="Calque 8"><g class="cls-6"><g class="cls-7"><g class="cls-8"><g class="cls-6"><g class="cls-9"><path class="cls-10" d="M0,0H41Q43.09,14.12,53.6,16.38t16.72-2.15V-4.38L103,30.12,70.32,64.62V46.89q-21,7.59-44.23-3.63T0,0Z"/></g></g><g class="cls-9"><path class="cls-11" d="M0,0H41Q43.09,14.12,53.6,16.38t16.72-2.15V-4.38L103,30.12,70.32,64.62V46.89q-21,7.59-44.23-3.63T0,0Z"/></g></g></g></g></g></svg>