<svg xmlns="http://www.w3.org/2000/svg" xmlns:xlink="http://www.w3.org/1999/xlink" viewBox="0 0 591.63 156.92"><defs><style>.cls-1,.cls-16,.cls-2,.cls-3,.cls-32{fill:none;}.cls-1{clip-rule:evenodd;}.cls-3{fill-rule:evenodd;}.cls-4{clip-path:url(#clip-path);}.cls-5{clip-path:url(#clip-path-2);}.cls-6{clip-path:url(#clip-path-3);}.cls-7{clip-path:url(#clip-path-4);}.cls-8{clip-path:url(#clip-path-5);}.cls-9{clip-path:url(#clip-path-6);}.cls-10{clip-path:url(#clip-path-7);}.cls-11{clip-path:url(#clip-path-8);}.cls-12{isolation:isolate;}.cls-13{clip-path:url(#clip-path-9);}.cls-14{clip-path:url(#clip-path-11);}.cls-15{fill:#eb5d0b;}.cls-16,.cls-32{stroke:#100707;stroke-miterlimit:10;}.cls-16{stroke-width:10px;}.cls-17{clip-path:url(#clip-path-13);}.cls-18{clip-path:url(#clip-path-17);}.cls-19{clip-path:url(#clip-path-21);}.cls-20{clip-path:url(#clip-path-25);}.cls-21{clip-path:url(#clip-path-29);}.cls-22{clip-path:url(#clip-path-33);}.cls-23{clip-path:url(#clip-path-37);}.cls-24{clip-path:url(#clip-path-41);}.cls-25{clip-path:url(#clip-path-45);}.cls-26{clip-path:url(#clip-path-46);}.cls-27{clip-path:url(#clip-path-47);}.cls-28{clip-path:url(#clip-path-49);}.cls-29{clip-path:url(#clip-path-51);}.cls-30{clip-path:url(#clip-path-53);}.cls-31{clip-path:url(#clip-path-55);}.cls-32{stroke-width:10px;}.cls-33{clip-path:url(#clip-path-57);}.cls-34{clip-path:url(#clip-path-58);}</style><clipPath id="clip-path"><path class="cls-1" d="M1612.69-331.11q-151.59,50-366.85,50c-215.26,0-376.64-50-593.15-50s-435.73,50-594.55,50q-158.83,0-365.45-50v-102h1v-782h1919Z"/></clipPath><clipPath id="clip-path-2"><path class="cls-1" d="M-307.31-475.11v-783h1919v885q-151.59,50-366.85,50c-215.26,0-376.64-50-593.15-50s-435.73,50-594.55,50q-158.83,0-365.45-50v-102Z"/></clipPath><clipPath id="clip-path-3"><path class="cls-1" d="M-306.31-513.11v-783h1919v885q-151.59,50-366.85,50c-215.26,0-376.64-50-593.15-50s-435.73,50-594.55,50q-158.83,0-365.45-50v-102Z"/></clipPath><clipPath id="clip-path-4"><path class="cls-1" d="M1579.73-1584.14q-151.59,55.29-366.85,55.28c-215.26,0-376.64-55.28-593.15-55.28S184-1528.86,25.18-1528.86q-158.83,0-365.45-55.28v-112.77h1v-867.27h1919Z"/></clipPath><clipPath id="clip-path-5"><path class="cls-1" d="M-340.27-1744.13V-2612.4h1919v981q-151.59,55.29-366.85,55.28c-215.26,0-376.64-55.28-593.15-55.28S183-1576.08,24.18-1576.08q-158.83,0-365.45-55.28v-112.77Z"/></clipPath><clipPath id="clip-path-6"><path class="cls-1" d="M-339.27-1786v-868.27h1919v981q-151.59,55.28-366.85,55.28c-215.26,0-376.64-55.28-593.15-55.28S184-1617.92,25.18-1617.92q-158.83,0-365.45-55.28V-1786Z"/></clipPath><clipPath id="clip-path-7"><polygon class="cls-1" points="525.07 81.28 564.36 118.78 525.07 156.28 525.07 138.82 474.64 138.82 474.64 98.56 525.07 98.56 525.07 81.28"/></clipPath><clipPath id="clip-path-8"><rect class="cls-2" y="80.92" width="565" height="76"/></clipPath><clipPath id="clip-path-9"><rect class="cls-2" x="424" y="31" width="191" height="176"/></clipPath><clipPath id="clip-path-11"><rect class="cls-2" x="474" y="81" width="91" height="76"/></clipPath><clipPath id="clip-path-13"><rect class="cls-2" x="411.64" y="96.92" width="43" height="43"/></clipPath><clipPath id="clip-path-17"><rect class="cls-2" x="348.64" y="96.92" width="43" height="43"/></clipPath><clipPath id="clip-path-21"><rect class="cls-2" x="285.64" y="96.92" width="43" height="43"/></clipPath><clipPath id="clip-path-25"><rect class="cls-2" x="222.64" y="96.92" width="43" height="43"/></clipPath><clipPath id="clip-path-29"><rect class="cls-2" x="159.64" y="96.92" width="43" height="43"/></clipPath><clipPath id="clip-path-33"><rect class="cls-2" x="96.64" y="96.92" width="43" height="43"/></clipPath><clipPath id="clip-path-37"><rect class="cls-2" x="33.64" y="96.92" width="43" height="43"/></clipPath><clipPath id="clip-path-41"><rect class="cls-2" x="-29.36" y="96.92" width="43" height="43"/></clipPath><clipPath id="clip-path-45"><polygon class="cls-1" points="566.95 102.64 504.99 20.6 542.16 0 566.95 102.64"/></clipPath><clipPath id="clip-path-46"><rect class="cls-2" y="-2651" width="1920" height="3915"/></clipPath><clipPath id="clip-path-47"><rect class="cls-2" x="437" y="-20" width="198" height="143"/></clipPath><clipPath id="clip-path-49"><rect class="cls-2" x="504" width="63" height="103"/></clipPath><clipPath id="clip-path-51"><polygon class="cls-1" points="572.56 99.08 558.65 21.52 591.63 20.37 572.56 99.08"/></clipPath><clipPath id="clip-path-53"><rect class="cls-2" x="506" y="-28" width="138" height="176"/></clipPath><clipPath id="clip-path-55"><rect class="cls-2" x="558" y="20" width="34" height="80"/></clipPath><clipPath id="clip-path-57"><polygon class="cls-1" points="-0.17 309.8 61.79 227.76 24.61 207.16 -0.17 309.8"/></clipPath><clipPath id="clip-path-58"><polygon class="cls-1" points="-5.78 306.24 8.13 228.68 -24.85 227.53 -5.78 306.24"/></clipPath></defs><title>Sans titre - 3</title><g id="Calque_4" data-name="Calque 4"><g class="cls-10"><g class="cls-11"><g class="cls-12"><g class="cls-13"><g class="cls-10"><g class="cls-14"><polygon class="cls-15" points="525.07 81.28 564.36 118.78 525.07 156.28 525.07 138.82 474.64 138.82 474.64 98.56 525.07 98.56 525.07 81.28"/></g></g><g class="cls-14"><polygon class="cls-16" points="525.07 81.28 564.36 118.78 525.07 156.28 525.07 138.82 474.64 138.82 474.64 98.56 525.07 98.56 525.07 81.28"/></g></g></g></g></g><g class="cls-17"><g class="cls-11"><rect class="cls-15" x="411.64" y="96.92" width="43" height="43"/></g></g><g class="cls-17"><g class="cls-11"><rect class="cls-16" x="411.64" y="96.92" width="43" height="43"/></g></g><g class="cls-18"><g class="cls-11"><rect class="cls-15" x="348.64" y="96.92" width="43" height="43"/></g></g><g class="cls-18"><g class="cls-11"><rect class="cls-16" x="348.64" y="96.92" width="43" height="43"/></g></g><g class="cls-19"><g class="cls-11"><rect class="cls-15" x="285.64" y="96.92" width="43" height="43"/></g></g><g class="cls-19"><g class="cls-11"><rect class="cls-16" x="285.64" y="96.92" width="43" height="43"/></g></g><g class="cls-20"><g class="cls-11"><rect class="cls-15" x="222.64" y="96.92" width="43" height="43"/></g></g><g class="cls-20"><g class="cls-11"><rect class="cls-16" x="222.64" y="96.92" width="43" height="43"/></g></g><g class="cls-21"><g class="cls-11"><rect class="cls-15" x="159.64" y="96.92" width="43" height="43"/></g></g><g class="cls-21"><g class="cls-11"><rect class="cls-16" x="159.64" y="96.92" width="43" height="43"/></g></g><g class="cls-22"><g class="cls-11"><rect class="cls-15" x="96.64" y="96.92" width="43" height="43"/></g></g><g class="cls-22"><g class="cls-11"><rect class="cls-16" x="96.64" y="96.92" width="43" height="43"/></g></g><g class="cls-23"><g class="cls-11"><rect class="cls-15" x="33.64" y="96.92" width="43" height="43"/></g></g><g class="cls-23"><g class="cls-11"><rect class="cls-16" x="33.64" y="96.92" width="43" height="43"/></g></g><g class="cls-24"><g class="cls-11"><rect class="cls-15" x="-29.36" y="96.92" width="43" height="43"/></g></g><g class="cls-24"><g class="cls-11"><rect class="cls-16" x="-29.36" y="96.92" width="43" height="43"/></g></g><g class="cls-25"><g class="cls-26"><g class="cls-12"><g class="cls-27"><g class="cls-25"><g class="cls-28"><polygon class="cls-15" points="566.95 102.64 504.99 20.6 542.16 0 566.95 102.64"/></g></g><g class="cls-28"><polygon class="cls-16" points="566.95 102.64 504.99 20.6 542.16 0 566.95 102.64"/></g></g></g></g></g><g class="cls-29"><g class="cls-26"><g class="cls-12"><g class="cls-30"><g class="cls-29"><g class="cls-31"><polygon class="cls-15" points="572.56 99.08 558.65 21.52 591.63 20.37 572.56 99.08"/></g></g><g class="cls-31"><polygon class="cls-32" points="572.56 99.08 558.65 21.52 591.63 20.37 572.56 99.08"/></g></g></g></g></g></g></svg>