<svg id="Calque_2" data-name="Calque 2" xmlns="http://www.w3.org/2000/svg" xmlns:xlink="http://www.w3.org/1999/xlink" viewBox="0 0 437.35 454"><defs><style>.cls-1,.cls-2{fill:none;}.cls-2{clip-rule:evenodd;}.cls-3{clip-path:url(#clip-path);}.cls-4{clip-path:url(#clip-path-2);}.cls-5{isolation:isolate;}.cls-6{clip-path:url(#clip-path-3);}.cls-7{clip-path:url(#clip-path-4);}.cls-8{clip-path:url(#clip-path-5);}.cls-9{fill:#fff;}.cls-10{clip-path:url(#clip-path-6);}.cls-11{clip-path:url(#clip-path-8);}.cls-12{clip-path:url(#clip-path-10);}.cls-13{clip-path:url(#clip-path-12);}.cls-14{clip-path:url(#clip-path-14);}.cls-15{clip-path:url(#clip-path-16);}.cls-16{clip-path:url(#clip-path-18);}</style><clipPath id="clip-path"><rect class="cls-1" x="-83.65" width="521" height="454"/></clipPath><clipPath id="clip-path-2"><rect class="cls-1" y="-146" width="1920" height="3915"/></clipPath><clipPath id="clip-path-3"><rect class="cls-1" x="-289" y="-32" width="972" height="520"/></clipPath><clipPath id="clip-path-4"><polygon class="cls-2" points="-274.59 -32 -288.65 -10.68 40.29 488 54.35 466.68 -274.59 -32"/></clipPath><clipPath id="clip-path-5"><rect class="cls-1" width="438" height="454"/></clipPath><clipPath id="clip-path-6"><polygon class="cls-2" points="-184.63 -32 -198.65 -10.68 129.33 488 143.35 466.68 -184.63 -32"/></clipPath><clipPath id="clip-path-8"><polygon class="cls-2" points="-95.59 -32 -109.65 -10.68 219.29 488 233.35 466.68 -95.59 -32"/></clipPath><clipPath id="clip-path-10"><polygon class="cls-2" points="-6.59 -32 -20.65 -10.68 308.29 488 322.35 466.68 -6.59 -32"/></clipPath><clipPath id="clip-path-12"><polygon class="cls-2" points="84.41 -32 70.35 -10.68 399.29 488 413.35 466.68 84.41 -32"/></clipPath><clipPath id="clip-path-14"><polygon class="cls-2" points="353.41 -32 339.35 -10.68 668.29 488 682.35 466.68 353.41 -32"/></clipPath><clipPath id="clip-path-16"><polygon class="cls-2" points="173.41 -32 159.35 -10.68 488.29 488 502.35 466.68 173.41 -32"/></clipPath><clipPath id="clip-path-18"><polygon class="cls-2" points="263.41 -32 249.35 -10.68 578.29 488 592.35 466.68 263.41 -32"/></clipPath></defs><title>Sans titre - 3</title><g class="cls-3"><g class="cls-4"><g class="cls-5"><g class="cls-6"><g class="cls-7"><g class="cls-8"><rect class="cls-9" x="-293.65" y="-37" width="353" height="530"/></g></g><g class="cls-10"><g class="cls-8"><rect class="cls-9" x="-203.65" y="-37" width="352" height="530"/></g></g><g class="cls-11"><g class="cls-8"><rect class="cls-9" x="-114.65" y="-37" width="353" height="530"/></g></g><g class="cls-12"><g class="cls-8"><rect class="cls-9" x="-25.65" y="-37" width="353" height="530"/></g></g><g class="cls-13"><g class="cls-8"><rect class="cls-9" x="65.35" y="-37" width="353" height="530"/></g></g><g class="cls-14"><g class="cls-8"><rect class="cls-9" x="334.35" y="-37" width="353" height="530"/></g></g><g class="cls-15"><g class="cls-8"><rect class="cls-9" x="154.35" y="-37" width="353" height="530"/></g></g><g class="cls-16"><g class="cls-8"><rect class="cls-9" x="244.35" y="-37" width="353" height="530"/></g></g></g></g></g></g></svg>