<svg id="Calque_4" data-name="Calque 4" xmlns="http://www.w3.org/2000/svg" xmlns:xlink="http://www.w3.org/1999/xlink" viewBox="0 0 1918 153.58"><defs><style>.cls-1{fill:none;clip-rule:evenodd;}.cls-2{clip-path:url(#clip-path);}.cls-3{fill:#f1241b;}.cls-4{clip-path:url(#clip-path-2);}.cls-5{fill:#ff6b00;}</style><clipPath id="clip-path"><path class="cls-1" d="M1920,4.24V93.3q-151.59,55.29-366.85,55.28c-215.26,0-376.64-55.28-593.15-55.28s-435.72,55.28-594.55,55.28q-157.24,0-361.32-54.18L0,93.3V46.35l3.13.83q202,53.64,358.14,54.18h3.18c158.83,0,378-55.28,594.55-55.28s377.89,55.28,593.15,55.28q215.26,0,366.85-55.28V4.6Z"/></clipPath><clipPath id="clip-path-2"><path class="cls-1" d="M1920-42.11V47q-151.59,55.29-366.85,55.28C1337.89,102.23,1176.51,47,960,47s-435.72,55.28-594.55,55.28q-157.24,0-361.32-54.18L0,47V0L3.13.83Q205.15,54.47,361.27,55h3.18C523.28,55,742.49-.27,959-.27S1336.89,55,1552.15,55Q1767.42,55,1919-.27V-41.74Z"/></clipPath></defs><title>vague-un</title><g class="cls-2">
<rect class="cls-3" x="0" y="-0.76" width="1930" height="154.34"/>
</g>
<g class="cls-4">
<rect class="cls-5" x="0" y="-47.11" width="1930" height="154.34"/>
</g>
</svg>