<svg xmlns="http://www.w3.org/2000/svg" width="342.391" height="228.428" viewBox="0 0 342.391 228.428"><g transform="translate(490.864 -84.379) rotate(135)"><circle cx="16.147" cy="16.147" r="16.147" transform="translate(185.936 34.312)" fill="#5391ff"/><circle cx="16.147" cy="16.147" r="16.147" transform="matrix(-0.966, -0.259, 0.259, -0.966, 503.562, 181.839)" fill="#5391ff"/><ellipse cx="10.504" cy="10.504" rx="10.504" ry="10.504" transform="translate(486.059 50.906) rotate(60)" fill="#5391ff"/><ellipse cx="15.253" cy="15.253" rx="15.253" ry="15.253" transform="translate(415.151 20.378) rotate(60)" fill="#5391ff"/><circle cx="16.147" cy="16.147" r="16.147" transform="translate(183 26.973)" fill="#fff"/><circle cx="16.147" cy="16.147" r="16.147" transform="matrix(-0.966, -0.259, 0.259, -0.966, 504.498, 189.688)" fill="#fff"/><ellipse cx="10.504" cy="10.504" rx="10.504" ry="10.504" transform="translate(489.239 46.864) rotate(60)" fill="#fff"/><ellipse cx="15.253" cy="15.253" rx="15.253" ry="15.253" transform="translate(419.768 14.51) rotate(60)" fill="#fff"/><circle cx="8.807" cy="8.807" r="8.807" transform="translate(240.249 63.671)" fill="#5391ff"/><circle cx="8.807" cy="8.807" r="8.807" transform="matrix(-0.966, -0.259, 0.259, -0.966, 458.698, 139.424)" fill="#5391ff"/><circle cx="8.807" cy="8.807" r="8.807" transform="translate(237.313 56.331)" fill="#fff"/><circle cx="8.807" cy="8.807" r="8.807" transform="matrix(-0.966, -0.259, 0.259, -0.966, 459.634, 147.273)" fill="#fff"/><circle cx="8.807" cy="8.807" r="8.807" transform="translate(249.056 25.505)" fill="#5391ff"/><circle cx="8.807" cy="8.807" r="8.807" transform="matrix(-0.966, -0.259, 0.259, -0.966, 440.313, 174.01)" fill="#5391ff"/><circle cx="8.807" cy="8.807" r="8.807" transform="translate(246.12 18.165)" fill="#fff"/><circle cx="8.807" cy="8.807" r="8.807" transform="matrix(-0.966, -0.259, 0.259, -0.966, 441.249, 181.859)" fill="#fff"/></g></svg>